<svg width="20" height="20" viewBox="0 0 20 20" fill="none" xmlns="http://www.w3.org/2000/svg">
<g clip-path="url(#clip0_8222_15297)">
<path d="M19.2799 10.0555C19.2793 4.96231 15.1504 0.833496 10.0566 0.833496C4.9628 0.833496 0.833374 4.96292 0.833374 10.0567C0.833374 14.6419 4.17923 18.4454 8.56206 19.1594L8.61495 19.1668V12.7224H6.27285V10.0555H8.61495V8.02463C8.60327 7.92192 8.59712 7.8026 8.59712 7.68205C8.59712 5.88426 10.0548 4.4266 11.8526 4.4266C11.9393 4.4266 12.0254 4.43029 12.1109 4.43644L12.0998 4.43583C12.8373 4.44628 13.5507 4.51148 14.2469 4.62772L14.1645 4.61604V6.88556H13.0009C12.948 6.87818 12.8871 6.87388 12.8256 6.87388C12.0894 6.87388 11.4921 7.47047 11.4921 8.2073C11.4921 8.24912 11.494 8.29033 11.4977 8.33154L11.4971 8.326V10.0555H14.055L13.646 12.7224H11.4971V19.1668C15.9334 18.4448 19.2793 14.6407 19.2799 10.0555Z" fill="#424746"/>
</g>
<defs>
<clipPath id="clip0_8222_15297">
<rect width="20" height="20" fill="white"/>
</clipPath>
</defs>
</svg>
