<svg width="20" height="20" viewBox="0 0 20 20" fill="none" xmlns="http://www.w3.org/2000/svg">
<path fill-rule="evenodd" clip-rule="evenodd" d="M9.99996 14.5453C12.5103 14.5453 14.5454 12.5102 14.5454 9.99984C14.5454 7.48945 12.5103 5.45438 9.99996 5.45438C7.48957 5.45438 5.4545 7.48945 5.4545 9.99984C5.4545 12.5102 7.48957 14.5453 9.99996 14.5453ZM9.99996 13.0301C11.6735 13.0301 13.0303 11.6734 13.0303 9.99984C13.0303 8.32625 11.6735 6.96953 9.99996 6.96953C8.32637 6.96953 6.96966 8.32625 6.96966 9.99984C6.96966 11.6734 8.32637 13.0301 9.99996 13.0301Z" fill="#424746"/>
<path d="M14.5454 4.69681C14.127 4.69681 13.7878 5.03599 13.7878 5.45438C13.7878 5.87278 14.127 6.21196 14.5454 6.21196C14.9638 6.21196 15.303 5.87278 15.303 5.45438C15.303 5.03599 14.9638 4.69681 14.5454 4.69681Z" fill="#424746"/>
<path fill-rule="evenodd" clip-rule="evenodd" d="M2.16205 4.14837C1.66663 5.12069 1.66663 6.39354 1.66663 8.93923V11.0604C1.66663 13.6061 1.66663 14.879 2.16205 15.8513C2.59784 16.7066 3.2932 17.402 4.14849 17.8377C5.12082 18.3332 6.39366 18.3332 8.93935 18.3332H11.0606C13.6062 18.3332 14.8791 18.3332 15.8514 17.8377C16.7067 17.402 17.4021 16.7066 17.8378 15.8513C18.3333 14.879 18.3333 13.6061 18.3333 11.0604V8.93923C18.3333 6.39354 18.3333 5.12069 17.8378 4.14837C17.4021 3.29308 16.7067 2.59772 15.8514 2.16193C14.8791 1.6665 13.6062 1.6665 11.0606 1.6665H8.93935C6.39366 1.6665 5.12082 1.6665 4.14849 2.16193C3.2932 2.59772 2.59784 3.29308 2.16205 4.14837ZM11.0606 3.18166H8.93935C7.64151 3.18166 6.75924 3.18284 6.07729 3.23855C5.41302 3.29282 5.07332 3.39119 4.83635 3.51194C4.26616 3.80247 3.80259 4.26604 3.51206 4.83623C3.39132 5.0732 3.29294 5.4129 3.23867 6.07717C3.18296 6.75912 3.18178 7.64138 3.18178 8.93923V11.0604C3.18178 12.3583 3.18296 13.2405 3.23867 13.9225C3.29294 14.5868 3.39132 14.9265 3.51206 15.1635C3.80259 15.7336 4.26616 16.1972 4.83635 16.4877C5.07332 16.6085 5.41302 16.7069 6.07729 16.7611C6.75924 16.8168 7.64151 16.818 8.93935 16.818H11.0606C12.3584 16.818 13.2406 16.8168 13.9226 16.7611C14.5869 16.7069 14.9266 16.6085 15.1636 16.4877C15.7337 16.1972 16.1973 15.7336 16.4878 15.1635C16.6086 14.9265 16.707 14.5868 16.7612 13.9225C16.8169 13.2405 16.8181 12.3583 16.8181 11.0604V8.93923C16.8181 7.64138 16.8169 6.75912 16.7612 6.07717C16.707 5.4129 16.6086 5.0732 16.4878 4.83623C16.1973 4.26604 15.7337 3.80247 15.1636 3.51194C14.9266 3.39119 14.5869 3.29282 13.9226 3.23855C13.2406 3.18284 12.3584 3.18166 11.0606 3.18166Z" fill="#424746"/>
</svg>
