<svg width="20" height="20" viewBox="0 0 20 20" fill="none" xmlns="http://www.w3.org/2000/svg">
<path d="M9.99514 1.66748C10.5437 1.664 11.1 1.73709 11.6348 1.90283L11.6338 1.90381C13.2192 2.37915 14.5596 3.73251 14.8574 5.42529C14.8583 5.43043 14.8596 5.43576 14.8604 5.44092C14.9343 5.93343 14.9441 6.42099 14.9424 6.87646C14.9418 7.04237 14.9389 7.20166 14.9375 7.35693C15.2031 7.2802 15.53 7.21583 15.8906 7.27197C16.4284 7.35366 16.7804 7.74454 16.9229 8.15088C17.0635 8.55208 17.0351 9.0611 16.7168 9.45947C16.4361 9.81113 16.0879 10.0526 15.792 10.2427C15.5437 10.4022 15.3447 10.5195 15.167 10.6489C15.1682 10.6523 15.1698 10.6555 15.1709 10.6587C15.178 10.6794 15.1842 10.7048 15.1924 10.7319C15.5643 11.7429 16.3983 12.5438 17.4072 13.1079L17.6113 13.2183L17.627 13.2261C17.7004 13.2666 17.9394 13.3867 18.1162 13.5552C18.2138 13.6482 18.3296 13.7872 18.3926 13.98C18.4599 14.1862 18.4502 14.4029 18.3731 14.6069C18.3652 14.6278 18.3568 14.6485 18.3467 14.6685C18.1613 15.0343 17.8575 15.2417 17.6045 15.3696C17.3829 15.4817 17.0849 15.5801 16.9551 15.6313L16.9561 15.6323C16.7645 15.7107 16.5398 15.7634 16.4287 15.7944C16.3906 15.8051 16.3583 15.8164 16.3301 15.8257C16.3158 15.8821 16.2984 15.9573 16.2793 16.0181C16.2109 16.2359 16.0585 16.5871 15.6426 16.7651C15.6358 16.7681 15.629 16.7712 15.6221 16.7739C15.2604 16.9134 14.8961 16.9373 14.6162 16.9507C14.3072 16.9655 14.1032 16.9688 13.9053 17.0151C13.878 17.0215 13.8502 17.0261 13.8223 17.0288C13.6079 17.0492 13.3922 17.1236 13.1475 17.2446C12.8788 17.3774 12.6691 17.5133 12.3506 17.689C11.4953 18.2117 10.4883 18.402 9.52736 18.312V18.311C8.50065 18.2431 7.6251 17.6844 6.9551 17.2964L6.94729 17.2925C6.68191 17.1338 6.37248 17.0497 5.99904 16.9985C5.81214 16.9729 5.61885 16.9573 5.41018 16.9409C5.20684 16.925 4.98387 16.9086 4.76467 16.8833V16.8823C4.4038 16.8596 4.12576 16.6735 3.94631 16.4487C3.79624 16.2607 3.7086 16.0401 3.66604 15.8296C3.66258 15.8285 3.65893 15.8278 3.65529 15.8267C3.63562 15.8206 3.59453 15.8085 3.56838 15.8003C3.56157 15.7982 3.5546 15.7958 3.54787 15.7935C3.36335 15.7287 3.00344 15.6215 2.75002 15.5229C2.4586 15.4097 2.1324 15.25 1.84865 14.9839C1.83573 14.9718 1.82339 14.959 1.81154 14.9458C1.49577 14.5945 1.5203 14.1666 1.66701 13.8647C1.79326 13.6052 2.01717 13.403 2.25588 13.2915L2.59084 13.1138C3.35719 12.6815 4.02816 12.1113 4.46975 11.4204C4.64874 11.1169 4.77618 10.8772 4.834 10.6616C4.79719 10.6371 4.76594 10.6169 4.70998 10.5796C4.65659 10.544 4.59315 10.4983 4.52834 10.4468V10.4478C4.33324 10.3013 4.19654 10.2266 3.93557 10.0444C3.71451 9.89011 3.46099 9.69247 3.25295 9.42041C3.24945 9.41583 3.24558 9.41141 3.24221 9.40674C2.72327 8.68719 3.05535 7.58766 3.9385 7.31982C4.36877 7.1824 4.76412 7.25728 5.06447 7.34814C5.06328 7.10554 5.0611 6.86189 5.06252 6.61963C5.02764 5.48724 5.32499 4.23329 6.18068 3.31299C7.13905 2.19775 8.59131 1.65985 9.98635 1.66748H9.98928C9.99151 1.66749 9.99388 1.66649 9.99611 1.6665L9.99514 1.66748ZM9.98732 2.9165C8.89314 2.90855 7.81128 3.33355 7.12893 4.12744C7.12254 4.13488 7.11613 4.14278 7.10939 4.1499C6.5299 4.76338 6.27979 5.67265 6.31252 6.60107C6.31282 6.60964 6.31257 6.61887 6.31252 6.62744C6.30942 7.15698 6.31648 7.68068 6.31838 8.22119C6.31891 8.41358 6.23041 8.59549 6.07912 8.71436C5.92756 8.83331 5.729 8.87602 5.54201 8.82959C5.37651 8.78847 5.21931 8.73109 5.08889 8.68213C4.94822 8.62932 4.84144 8.58708 4.73146 8.55225C4.51686 8.48429 4.40349 8.48333 4.3174 8.51123C4.31232 8.51288 4.3069 8.51459 4.30178 8.51611C4.29778 8.51733 4.27017 8.52812 4.25295 8.58057C4.23737 8.62804 4.24752 8.65921 4.25393 8.67139C4.34497 8.78719 4.47174 8.89528 4.65041 9.02002C4.72234 9.07024 4.83138 9.14072 4.94631 9.21729L5.27834 9.44873L5.29885 9.46436C5.36773 9.52059 5.41889 9.54648 5.57033 9.6499C5.68911 9.73103 5.86659 9.86021 6.0049 10.0552C6.07984 10.1609 6.12016 10.2879 6.12014 10.4175C6.11986 11.0955 5.76675 11.6847 5.54104 12.0669C5.53761 12.0727 5.5339 12.0788 5.53029 12.0845C4.91765 13.0477 4.00186 13.7744 3.04104 14.2886C3.09109 14.312 3.145 14.3353 3.20314 14.3579C3.45599 14.4562 3.63171 14.4991 3.94143 14.6069C4.00034 14.6254 4.23388 14.6869 4.41994 14.7993C4.52526 14.863 4.65502 14.9633 4.75295 15.1196C4.83787 15.2553 4.88067 15.408 4.88674 15.5669C4.88993 15.5885 4.89475 15.6108 4.90236 15.6304C4.90395 15.6344 4.90669 15.6377 4.90822 15.6411L5.50783 15.6948C5.71691 15.7112 5.94254 15.7292 6.16896 15.7603C6.6226 15.8224 7.11931 15.9385 7.58889 16.2192H7.58791C8.35088 16.6612 8.94924 17.025 9.62307 17.0649C9.63018 17.0654 9.63745 17.0662 9.64455 17.0669C10.3789 17.1357 11.1177 16.9848 11.7188 16.6108L11.7471 16.5942C11.9732 16.4695 12.3013 16.2681 12.5938 16.1235C12.9038 15.9703 13.2647 15.8303 13.6778 15.7866C13.9989 15.7194 14.3265 15.7127 14.5567 15.7017C14.7835 15.6908 14.9489 15.6723 15.0889 15.6323C15.1052 15.5786 15.1137 15.5412 15.1416 15.436C15.1649 15.3485 15.2022 15.218 15.2705 15.0874L15.3096 15.022C15.3525 14.9598 15.4072 14.906 15.4697 14.8628C15.6911 14.7101 15.9257 14.637 16.0928 14.5903C16.2894 14.5354 16.3805 14.5178 16.4824 14.4761L16.4873 14.4731C16.5882 14.4329 16.7164 14.3871 16.7988 14.356C16.8597 14.333 16.9117 14.3078 16.96 14.2866C15.7198 13.6294 14.5452 12.6003 14.0166 11.1558C14.0095 11.1363 14.0032 11.1163 13.9981 11.0962V11.0942C13.9976 11.0927 13.997 11.0902 13.9961 11.0874C13.9943 11.0816 13.9918 11.074 13.9883 11.064C13.9798 11.0392 13.9734 11.0208 13.96 10.9829C13.9387 10.9226 13.9026 10.8213 13.8819 10.7095C13.8612 10.5982 13.8454 10.4266 13.9043 10.2388C13.9593 10.0635 14.0675 9.91965 14.21 9.81201L14.4424 9.63135C14.6805 9.45917 14.9279 9.3119 15.1162 9.19092C15.3923 9.01357 15.594 8.86254 15.7403 8.6792L15.752 8.64502C15.7549 8.62249 15.7531 8.59346 15.7432 8.56494C15.7332 8.53636 15.7195 8.51913 15.7119 8.51221C15.7069 8.50767 15.7054 8.50766 15.7031 8.50732H15.6992C15.5823 8.4889 15.4428 8.50605 15.2334 8.5708C15.1274 8.6036 15.023 8.6423 14.8946 8.68799C14.7729 8.73124 14.6315 8.7806 14.4844 8.81982C14.3018 8.86852 14.1067 8.83177 13.9541 8.72021C13.8017 8.60874 13.7083 8.43419 13.6992 8.24561C13.6772 7.78006 13.6908 7.29879 13.6924 6.87158C13.6941 6.43002 13.6832 6.02079 13.624 5.62647H13.6231C13.4094 4.45165 12.4478 3.45029 11.2705 3.09912L11.2647 3.09717C10.8604 2.9719 10.4301 2.91311 9.99611 2.9165H9.98732ZM14.9483 10.814H14.9492C14.9579 10.808 14.9678 10.8018 14.9776 10.7935C14.9679 10.8005 14.9583 10.8075 14.9483 10.814Z" fill="#424746"/>
</svg>
