<svg width="20" height="20" viewBox="0 0 20 20" fill="none" xmlns="http://www.w3.org/2000/svg">
<path d="M12.8628 8.20888C12.8629 8.0011 12.9742 7.80919 13.1543 7.70546C13.3344 7.60168 13.5566 7.60188 13.7364 7.70621C14.6946 8.26203 15.7825 8.5559 16.8902 8.55787H17.1688V6.27619H16.8887C15.821 6.27613 14.7972 5.85168 14.0423 5.09675C13.4258 4.48021 13.0304 3.68435 12.906 2.83173H10.5811V12.153C10.5811 12.619 10.4621 13.0775 10.2352 13.4846C10.0082 13.8916 9.68078 14.2336 9.28437 14.4786C8.88794 14.7235 8.43571 14.8634 7.97017 14.8843C7.50459 14.9053 7.04103 14.8073 6.62418 14.5989C6.2074 14.3905 5.85113 14.0785 5.58857 13.6935C5.32598 13.3085 5.16637 12.8624 5.12452 12.3982C5.08273 11.9342 5.15996 11.4673 5.34935 11.0417C5.49734 10.7091 5.71032 10.4108 5.9739 10.1628V7.50484C5.33814 7.76086 4.75909 8.14532 4.27438 8.63735C3.61301 9.30873 3.15408 10.1526 2.95034 11.0727C2.74664 11.9928 2.80604 12.9518 3.12219 13.8396C3.43836 14.7274 3.99828 15.5083 4.73768 16.0925C5.47724 16.6768 6.36705 17.0411 7.30399 17.1433C8.24082 17.2454 9.18736 17.0812 10.0353 16.6701C10.8834 16.259 11.5989 15.6173 12.099 14.8185C12.599 14.0197 12.8634 13.0961 12.8628 12.1537V8.20888ZM14.0226 12.3702C13.9851 13.4553 13.6621 14.513 13.0846 15.4354C12.4686 16.4195 11.5872 17.2098 10.5425 17.7163C9.49788 18.2228 8.33168 18.4251 7.17757 18.2993C6.02347 18.1734 4.92796 17.7252 4.01699 17.0055C3.10603 16.2858 2.41632 15.3239 2.02677 14.2302C1.63724 13.1366 1.56386 11.9549 1.81481 10.8214C2.06574 9.68801 2.63087 8.64828 3.44544 7.82128C4.26016 6.99425 5.29171 6.41317 6.4213 6.14523C6.5943 6.1042 6.77692 6.14473 6.91639 6.255C7.05569 6.36523 7.13664 6.53308 7.13669 6.71073V10.4307C7.13669 10.6137 7.05068 10.7865 6.90428 10.8963C6.69016 11.057 6.52031 11.2695 6.41146 11.514C6.30256 11.7588 6.25795 12.0278 6.28201 12.2945C6.30611 12.5612 6.39838 12.8175 6.54924 13.0387C6.70011 13.2598 6.90484 13.439 7.14426 13.5588C7.38383 13.6786 7.65035 13.7351 7.91794 13.723C8.18551 13.711 8.44561 13.6307 8.67345 13.4899C8.90129 13.3491 9.08958 13.1523 9.22002 12.9183C9.35043 12.6844 9.41836 12.4208 9.41836 12.153V2.25034C9.41836 1.92935 9.6788 1.66911 9.99975 1.66895H13.4442C13.7653 1.66895 14.0256 1.92924 14.0256 2.25034C14.0256 3.00961 14.3275 3.73771 14.8644 4.27462C15.4013 4.81149 16.1294 5.11334 16.8887 5.11341H17.7502C18.0712 5.11348 18.3316 5.37375 18.3316 5.6948V9.13926C18.3315 9.46028 18.0712 9.72058 17.7502 9.72065H16.8879C15.9019 9.71891 14.9298 9.52096 14.0256 9.1438V12.153L14.0226 12.3702Z" fill="#424746"/>
</svg>
