<svg width="28" height="28" viewBox="0 0 28 28" fill="none" xmlns="http://www.w3.org/2000/svg">
<rect width="28" height="28" rx="8" fill="#F9FDFC"/>
<path d="M13.9991 12.5606C15.6726 12.5606 17.0294 11.2039 17.0294 9.5303C17.0294 7.85671 15.6726 6.5 13.9991 6.5C12.3255 6.5 10.9688 7.85671 10.9688 9.5303C10.9688 11.2039 12.3255 12.5606 13.9991 12.5606Z" stroke="#24B094" stroke-width="1.25"/>
<path d="M18.5439 11.8035C19.7992 11.8035 20.8167 10.9556 20.8167 9.90956C20.8167 8.86357 19.7992 8.01562 18.5439 8.01562" stroke="#24B094" stroke-width="1.25" stroke-linecap="round"/>
<path d="M9.45437 11.8035C8.19918 11.8035 7.18164 10.9556 7.18164 9.90956C7.18164 8.86357 8.19918 8.01562 9.45437 8.01562" stroke="#24B094" stroke-width="1.25" stroke-linecap="round"/>
<path d="M13.9996 20.8946C16.5099 20.8946 18.545 19.5379 18.545 17.8643C18.545 16.1907 16.5099 14.834 13.9996 14.834C11.4892 14.834 9.4541 16.1907 9.4541 17.8643C9.4541 19.5379 11.4892 20.8946 13.9996 20.8946Z" stroke="#24B094" stroke-width="1.25"/>
<path d="M20.0596 19.3777C21.3885 19.0863 22.3323 18.3483 22.3323 17.4838C22.3323 16.6193 21.3885 15.8813 20.0596 15.5898" stroke="#24B094" stroke-width="1.25" stroke-linecap="round"/>
<path d="M7.93874 19.3777C6.60977 19.0863 5.66602 18.3483 5.66602 17.4838C5.66602 16.6193 6.60977 15.8813 7.93874 15.5898" stroke="#24B094" stroke-width="1.25" stroke-linecap="round"/>
</svg>
