<svg width="21" height="20" viewBox="0 0 21 20" fill="none" xmlns="http://www.w3.org/2000/svg">
<path fill-rule="evenodd" clip-rule="evenodd" d="M13.2811 3.24687C13.9334 2.40487 14.4278 1.21478 14.249 0C13.1829 0.0740867 11.9368 0.756164 11.2098 1.6452C10.547 2.45075 10.0023 3.64907 10.215 4.81211C11.3804 4.84857 12.5833 4.15002 13.2811 3.24687ZM19.0416 14.6738C18.5752 15.7134 18.3508 16.1779 17.75 17.0987C16.9118 18.3841 15.73 19.9846 14.2642 19.9963C12.9632 20.0105 12.6277 19.1437 10.8614 19.1543C9.09515 19.1637 8.72694 20.0128 7.42357 19.9998C5.95889 19.9869 4.83905 18.5428 4.00092 17.2575C1.65603 13.666 1.40938 9.45016 2.85536 7.20757C3.88403 5.61529 5.50651 4.68391 7.03081 4.68391C8.58199 4.68391 9.55805 5.54003 10.8427 5.54003C12.0888 5.54003 12.8474 4.68157 14.6418 4.68157C16.0001 4.68157 17.439 5.42596 18.463 6.71013C15.1058 8.56112 15.6494 13.3838 19.0416 14.6738Z" fill="#0B0B0A"/>
</svg>
