<svg width="32" height="32" viewBox="0 0 32 32" fill="none" xmlns="http://www.w3.org/2000/svg">
<rect opacity="0.4" width="32" height="32" rx="9.6" fill="#E74943"/>
<rect x="7.11121" y="7.1111" width="17.7778" height="17.7778" rx="5.33333" fill="#E74943" stroke="#E74943" stroke-width="1.33333"/>
<path d="M14.4283 11.5555C14.6571 10.9082 15.2745 10.4444 16.0002 10.4444C16.7258 10.4444 17.3432 10.9082 17.572 11.5555" stroke="white" stroke-width="0.833333" stroke-linecap="round"/>
<path d="M20.7223 12.6666H11.2778" stroke="white" stroke-width="0.833333" stroke-linecap="round"/>
<path d="M19.7962 14.0555L19.5407 17.8884C19.4423 19.3633 19.3932 20.1008 18.9126 20.5504C18.4321 21 17.6929 21 16.2147 21H15.7851C14.3069 21 13.5678 21 13.0872 20.5504C12.6066 20.1008 12.5575 19.3633 12.4591 17.8884L12.2036 14.0555" stroke="white" stroke-width="0.833333" stroke-linecap="round"/>
<path d="M14.6112 15.4444L14.889 18.2222" stroke="white" stroke-width="0.833333" stroke-linecap="round"/>
<path d="M17.389 15.4444L17.1112 18.2222" stroke="white" stroke-width="0.833333" stroke-linecap="round"/>
</svg>
