<svg width="32" height="32" viewBox="0 0 32 32" fill="none" xmlns="http://www.w3.org/2000/svg">
<rect width="32" height="32" rx="12.8" fill="#DFC2E3"/>
<path d="M21.199 12.7H20.2V11.8C20.2 11.3226 20.0104 10.8648 19.6728 10.5272C19.3352 10.1896 18.8774 10 18.4 10H8.8C8.32261 10 7.86477 10.1896 7.52721 10.5272C7.18964 10.8648 7 11.3226 7 11.8V19C7 19.4774 7.18964 19.9352 7.52721 20.2728C7.86477 20.6104 8.32261 20.8 8.8 20.8H9.604C9.45157 21.1201 9.38266 21.4736 9.4037 21.8275C9.42474 22.1814 9.53504 22.5242 9.72433 22.824C9.91361 23.1238 10.1757 23.3708 10.4862 23.542C10.7967 23.7131 11.1455 23.8029 11.5 23.8029C11.8545 23.8029 12.2033 23.7131 12.5138 23.542C12.8243 23.3708 13.0864 23.1238 13.2757 22.824C13.465 22.5242 13.5753 22.1814 13.5963 21.8275C13.6173 21.4736 13.5484 21.1201 13.396 20.8H17.704C17.5516 21.1201 17.4827 21.4736 17.5037 21.8275C17.5247 22.1814 17.635 22.5242 17.8243 22.824C18.0136 23.1238 18.2757 23.3708 18.5862 23.542C18.8967 23.7131 19.2455 23.8029 19.6 23.8029C19.9545 23.8029 20.3033 23.7131 20.6138 23.542C20.9243 23.3708 21.1864 23.1238 21.3757 22.824C21.565 22.5242 21.6753 22.1814 21.6963 21.8275C21.7173 21.4736 21.6484 21.1201 21.496 20.8H23.2C23.6774 20.8 24.1352 20.6104 24.4728 20.2728C24.8104 19.9352 25 19.4774 25 19V16.3C25 14.314 23.296 12.7 21.199 12.7ZM8.2 19V11.8C8.2 11.6409 8.26321 11.4883 8.37574 11.3757C8.48826 11.2632 8.64087 11.2 8.8 11.2H18.4C18.5591 11.2 18.7117 11.2632 18.8243 11.3757C18.9368 11.4883 19 11.6409 19 11.8V19.6H8.8C8.64087 19.6 8.48826 19.5368 8.37574 19.4243C8.26321 19.3117 8.2 19.1591 8.2 19ZM12.4 21.7C12.4 21.878 12.3472 22.052 12.2483 22.2C12.1494 22.348 12.0089 22.4634 11.8444 22.5315C11.68 22.5996 11.499 22.6174 11.3244 22.5827C11.1498 22.548 10.9895 22.4623 10.8636 22.3364C10.7377 22.2105 10.652 22.0502 10.6173 21.8756C10.5826 21.701 10.6004 21.52 10.6685 21.3556C10.7366 21.1911 10.852 21.0506 11 20.9517C11.148 20.8528 11.322 20.8 11.5 20.8C11.7387 20.8 11.9676 20.8948 12.1364 21.0636C12.3052 21.2324 12.4 21.4613 12.4 21.7ZM20.5 21.7C20.5 21.878 20.4472 22.052 20.3483 22.2C20.2494 22.348 20.1089 22.4634 19.9444 22.5315C19.78 22.5996 19.599 22.6174 19.4244 22.5827C19.2498 22.548 19.0895 22.4623 18.9636 22.3364C18.8377 22.2105 18.752 22.0502 18.7173 21.8756C18.6826 21.701 18.7004 21.52 18.7685 21.3556C18.8366 21.1911 18.952 21.0506 19.1 20.9517C19.248 20.8528 19.422 20.8 19.6 20.8C19.8387 20.8 20.0676 20.8948 20.2364 21.0636C20.4052 21.2324 20.5 21.4613 20.5 21.7ZM23.8 19C23.8 19.1591 23.7368 19.3117 23.6243 19.4243C23.5117 19.5368 23.3591 19.6 23.2 19.6H20.2V13.9H21.199C22.633 13.9 23.8 14.977 23.8 16.3V19Z" fill="#4E2775"/>
</svg>
