<svg width="94" height="32" viewBox="0 0 94 32" fill="none" xmlns="http://www.w3.org/2000/svg">
<path d="M8.54864 5.15469C9.94272 5.15469 11.0729 4.02456 11.0729 2.63047C11.0729 1.23638 9.94272 0.106247 8.54864 0.106247C7.15455 0.106247 6.02441 1.23638 6.02441 2.63047C6.02441 4.02456 7.15455 5.15469 8.54864 5.15469Z" stroke="#231F20" stroke-width="0.0653266" stroke-miterlimit="10"/>
<path d="M7.39512 4.5C7.38362 4.5 7.37474 4.49686 7.36847 4.49059C7.36219 4.48328 7.35906 4.47439 7.35906 4.46394V3.44014C7.35906 3.42864 7.36219 3.41976 7.36847 3.41349C7.37474 3.40617 7.38362 3.40251 7.39512 3.40251H7.77767C7.89578 3.40251 7.98933 3.43021 8.05831 3.48561C8.1273 3.541 8.16179 3.62306 8.16179 3.73176C8.16179 3.81224 8.14141 3.87809 8.10065 3.92931C8.06093 3.97948 8.00658 4.01449 7.93759 4.03435L8.17904 4.4514C8.18217 4.45767 8.18374 4.46342 8.18374 4.46864C8.18374 4.47701 8.18008 4.48432 8.17277 4.49059C8.1665 4.49686 8.15918 4.5 8.15082 4.5H8.07556C8.05779 4.5 8.04473 4.4953 8.03637 4.48589C8.028 4.47648 8.02069 4.46708 8.01442 4.45767L7.78708 4.05944H7.51271V4.46394C7.51271 4.47439 7.50905 4.48328 7.50173 4.49059C7.49546 4.49686 7.48658 4.5 7.47508 4.5H7.39512ZM7.51271 3.92617H7.7714C7.84979 3.92617 7.90832 3.90997 7.947 3.87757C7.98567 3.84412 8.00501 3.79499 8.00501 3.73019C8.00501 3.66643 7.98567 3.61783 7.947 3.58438C7.90937 3.55093 7.85084 3.53421 7.7714 3.53421H7.51271V3.92617Z" fill="#231F20"/>
<path d="M36.4223 9.5028C31.4934 8.18923 26.3702 10.2686 23.6694 14.6746C23.1716 15.4875 22.6886 16.3107 22.2071 17.1324C21.5518 18.2516 20.8729 19.4091 20.1646 20.5195L19.9952 20.7845C18.9997 22.3455 17.9689 23.9595 16.7481 25.3482C16.0648 26.1257 14.9795 26.7987 13.9177 27.1021C10.7472 28.0107 7.32773 26.3805 5.96114 23.313C4.64168 20.3486 5.61213 16.8453 8.26727 14.9809C11.0108 13.0562 14.6172 13.3964 17.0397 15.81C17.5315 16.3004 17.9777 16.8379 18.4077 17.3578L18.9997 18.0661L21.7623 13.5775V0.00293876H17.6287C17.0338 -0.0103148 16.4712 0.0206104 15.9205 0.108967L14.8101 3.8023C15.5346 3.62705 16.3313 3.5652 17.1781 3.60202V10.2421C17.1589 10.2347 17.1398 10.2259 17.1206 10.2185C16.7952 10.0874 16.5007 9.96815 16.1988 9.86507C11.7927 8.36889 7.89028 9.0993 4.60486 12.0387C1.24729 15.0443 0.033854 18.8996 1.09856 23.1893C2.27665 27.9385 5.50905 30.9265 10.4467 31.8336C11.0579 31.9455 11.6734 32 12.2875 32C16.1075 32 19.8465 29.8838 21.9877 26.3687C22.7357 25.1391 23.4779 23.905 24.2201 22.671C25.3496 20.7919 26.5189 18.848 27.6926 16.9543C29.3655 14.2564 32.5198 13.1048 35.5461 14.0885C38.0642 14.9073 39.9816 17.2444 40.2069 19.7714C40.4705 22.7299 39.0627 25.3379 36.5312 26.5793C33.857 27.8899 31.3049 27.5704 28.9473 25.628C28.3449 25.1317 27.8222 24.5353 27.2685 23.9021C27.0078 23.6046 26.7427 23.3012 26.4644 23.0023L26.1773 22.696L25.9593 23.0538C25.8003 23.3145 25.6383 23.5751 25.4763 23.8358L23.7651 26.4585L23.9359 26.7398C24.2673 27.2861 24.6266 27.8178 25.0522 28.2949C27.9356 31.5155 32.7996 32.8129 37.0746 31.3786C41.7443 29.8102 45.0327 25.1847 44.8942 20.3796C44.747 15.2652 41.2628 10.7913 36.4223 9.50133V9.5028Z" fill="#450577"/>
<path d="M47.2915 21.676V31.6441H51.9126V25.0365C51.9126 19.6894 52.2955 16.0609 57.7559 16.1758V11.8212C50.7271 11.6681 47.29 14.6472 47.29 21.676H47.2915Z" fill="#2ADDAA"/>
<path d="M60.0859 21.676V31.6441H64.707V25.0365C64.707 19.6894 65.0899 16.0609 70.5518 16.1758V11.8212C63.523 11.6681 60.0859 14.6472 60.0859 21.676Z" fill="#2ADDAA"/>
<path d="M91.6723 25.9897V12.125H87.0512V13.9584C85.3327 12.7362 83.3078 11.9719 81.2079 11.9719C75.7842 11.9719 70.7803 15.5621 70.7803 21.8266C70.7803 28.0912 75.7842 31.6814 81.2079 31.6814C83.4993 31.6814 85.6773 30.764 87.4709 29.39C87.7007 30.2309 88.0055 30.9554 88.4267 31.6431H93.2775C92.2083 30.1911 91.6723 28.2443 91.6723 25.9897ZM81.2079 27.3652C78.1905 27.3652 75.4014 25.3403 75.4014 21.8266C75.4014 18.313 78.1905 16.2881 81.2079 16.2881C84.2253 16.2881 87.0512 18.313 87.0512 21.8266C87.0512 25.3403 84.2636 27.3652 81.2079 27.3652Z" fill="#2ADDAA"/>
</svg>
