<svg width="24" height="24" viewBox="0 0 24 24" fill="none" xmlns="http://www.w3.org/2000/svg">
<path d="M23.1358 12.0664C23.1351 5.95458 18.1805 1 12.0679 1C5.95531 1 1 5.95531 1 12.0679C1 17.5701 5.01503 22.1343 10.2744 22.9911L10.3379 23V15.2666H7.52737V12.0664H10.3379V9.62936C10.3239 9.50611 10.3165 9.36292 10.3165 9.21826C10.3165 7.06092 12.0657 5.31173 14.223 5.31173C14.3271 5.31173 14.4304 5.31616 14.533 5.32354L14.5197 5.3228C15.4047 5.33535 16.2608 5.41358 17.0963 5.55307L16.9974 5.53905V8.26248H15.601C15.5375 8.25362 15.4644 8.24846 15.3906 8.24846C14.5072 8.24846 13.7905 8.96437 13.7905 9.84856C13.7905 9.89875 13.7927 9.9482 13.7972 9.99765L13.7964 9.99101V12.0664H16.866L16.3752 15.2666H13.7964V23C19.12 22.1335 23.1351 17.5686 23.1358 12.0664Z" fill="#424746"/>
</svg>
