<svg width="29" height="28" viewBox="0 0 29 28" fill="none" xmlns="http://www.w3.org/2000/svg">
<rect x="0.200195" width="28" height="28" rx="8" fill="#F9FDFC"/>
<path d="M20.3628 5.66797H20.2398C19.6623 5.66797 19.1276 5.99287 18.8092 6.53671C18.6922 6.73438 18.3859 6.75945 18.2403 6.58285C17.7557 5.99287 17.1121 5.66797 16.4242 5.66797C15.741 5.66797 15.0976 5.99287 14.6125 6.58285C14.4799 6.74387 14.2089 6.74501 14.0756 6.58247C13.5905 5.99287 12.9471 5.66797 12.2639 5.66797C11.5807 5.66797 10.9374 5.99287 10.4522 6.58285C10.3067 6.76096 10.0005 6.73647 9.88348 6.53671C9.56447 5.99287 9.02974 5.66797 8.45248 5.66797H8.31519C7.42481 5.66797 6.7002 6.39258 6.7002 7.28297V20.7196C6.7002 21.61 7.42481 22.3346 8.31519 22.3346H8.45248C9.02955 22.3346 9.56428 22.0097 9.88386 21.4651C9.99912 21.2671 10.306 21.2413 10.4522 21.4199C10.9374 22.0095 11.5807 22.3344 12.2639 22.3344C12.9471 22.3344 13.5905 22.0095 14.0756 21.4196C14.2089 21.2578 14.4799 21.2582 14.6125 21.4199C15.0976 22.0095 15.741 22.3344 16.4289 22.3344C17.1121 22.3344 17.7559 22.0095 18.2401 21.4203C18.3869 21.243 18.6937 21.2684 18.809 21.4651C19.1278 22.0097 19.6625 22.3346 20.24 22.3346H20.363C21.2534 22.3346 21.978 21.61 21.978 20.7196V7.28316C21.978 6.39258 21.2532 5.66797 20.3628 5.66797ZM20.589 20.7196C20.589 20.8444 20.4876 20.9458 20.3628 20.9458H20.2398C20.1232 20.9458 20.0326 20.8064 20.0076 20.7633C19.6969 20.2333 19.1225 19.9041 18.5088 19.9041C17.9879 19.9041 17.4993 20.135 17.1674 20.5381C17.0423 20.6904 16.7798 20.9456 16.4242 20.9456C16.0733 20.9456 15.8105 20.69 15.6853 20.5381C15.0237 19.732 13.6651 19.7318 13.0028 20.5377C12.8776 20.69 12.6148 20.9456 12.2639 20.9456C11.913 20.9456 11.6502 20.69 11.5251 20.5381C11.1941 20.135 10.7051 19.9041 10.1841 19.9041C9.56959 19.9041 8.99518 20.2337 8.68529 20.7633C8.66022 20.806 8.56926 20.9458 8.45267 20.9458H8.31538C8.19063 20.9458 8.08923 20.8444 8.08923 20.7196V7.28316C8.08923 7.1584 8.19063 7.057 8.31538 7.057H8.45267C8.56926 7.057 8.66022 7.19676 8.68491 7.23872C8.99518 7.76908 9.56959 8.09873 10.1841 8.09873C10.7053 8.09873 11.1943 7.86782 11.5251 7.46488C11.6502 7.31259 11.913 7.057 12.2639 7.057C12.6148 7.057 12.8776 7.31259 13.0028 7.4645C13.6651 8.27114 15.0237 8.2702 15.6853 7.46488C15.8105 7.31259 16.0733 7.057 16.4289 7.057C16.7798 7.057 17.0423 7.3124 17.1678 7.46526C17.4993 7.86782 17.9881 8.09873 18.5088 8.09873C19.1225 8.09873 19.6969 7.76946 20.0079 7.23872C20.0326 7.19638 20.1232 7.057 20.2398 7.057H20.3628C20.4876 7.057 20.589 7.1584 20.589 7.28316V20.7196Z" fill="#24B094"/>
<path d="M9.47788 11.9132C9.47788 11.5297 9.78878 11.2188 10.1723 11.2188H18.5057C18.8892 11.2188 19.2001 11.5297 19.2001 11.9132C19.2001 12.2967 18.8892 12.6076 18.5057 12.6076H10.1723C9.78878 12.6076 9.47788 12.2967 9.47788 11.9132ZM9.47617 15.3855C9.47617 15.0007 9.78809 14.6888 10.1729 14.6888H15.7239C16.1086 14.6888 16.4206 15.0007 16.4206 15.3855C16.4206 15.7703 16.1086 16.0822 15.7239 16.0822H10.1729C9.78809 16.0822 9.47617 15.7703 9.47617 15.3855Z" fill="#24B094"/>
</svg>
