<svg width="32" height="32" viewBox="0 0 32 32" fill="none" xmlns="http://www.w3.org/2000/svg">
<path fill-rule="evenodd" clip-rule="evenodd" d="M29.6667 16.3333C29.6667 23.6971 23.6971 29.6667 16.3333 29.6667C8.96953 29.6667 3 23.6971 3 16.3333C3 8.96953 8.96953 3 16.3333 3C23.6971 3 29.6667 8.96953 29.6667 16.3333ZM21.7071 12.2929C22.0976 12.6834 22.0976 13.3166 21.7071 13.7071L15.0404 20.3737C14.6499 20.7643 14.0168 20.7643 13.6262 20.3737L10.9596 17.7071C10.569 17.3165 10.569 16.6835 10.9596 16.2929C11.3501 15.9024 11.9833 15.9024 12.3738 16.2929L14.3333 18.2524L17.3131 15.2727L20.2929 12.2929C20.6835 11.9024 21.3165 11.9024 21.7071 12.2929Z" fill="#24B094"/>
</svg>
