<svg width="20" height="20" viewBox="0 0 20 20" fill="none" xmlns="http://www.w3.org/2000/svg">
<path fill-rule="evenodd" clip-rule="evenodd" d="M4.30597 10C4.30597 9.3649 4.41146 8.75601 4.59972 8.1849L1.30438 5.66846C0.66214 6.97246 0.300293 8.44179 0.300293 10C0.300293 11.5569 0.661694 13.0253 1.30305 14.3285L4.59661 11.8071C4.41012 11.2387 4.30597 10.632 4.30597 10Z" fill="#FBBC05"/>
<path fill-rule="evenodd" clip-rule="evenodd" d="M10.0921 4.22217C11.4718 4.22217 12.718 4.71106 13.6972 5.51106L16.5457 2.66661C14.8099 1.1555 12.5845 0.222168 10.0921 0.222168C6.22259 0.222168 2.89699 2.43506 1.3045 5.66839L4.59985 8.18484C5.35914 5.87995 7.52355 4.22217 10.0921 4.22217Z" fill="#EB4335"/>
<path fill-rule="evenodd" clip-rule="evenodd" d="M10.0921 15.7781C7.52355 15.7781 5.35914 14.1203 4.59985 11.8154L1.3045 14.3314C2.89699 17.5652 6.22259 19.7781 10.0921 19.7781C12.4804 19.7781 14.7605 18.9301 16.4718 17.3412L13.3438 14.923C12.4612 15.479 11.3499 15.7781 10.0921 15.7781Z" fill="#34A853"/>
<path fill-rule="evenodd" clip-rule="evenodd" d="M19.4386 9.99995C19.4386 9.42217 19.3496 8.79995 19.216 8.22217H10.092V11.9999H15.3439C15.0813 13.2879 14.3665 14.2782 13.3437 14.9226L16.4717 17.3408C18.2694 15.6724 19.4386 13.1871 19.4386 9.99995Z" fill="#4285F4"/>
</svg>
