<svg width="32" height="32" viewBox="0 0 32 32" fill="none" xmlns="http://www.w3.org/2000/svg">
<path d="M23.7716 6.24203L21.1049 4.84263C18.7641 3.61421 17.5937 3 16.3347 3C15.0756 3 13.9052 3.61421 11.5644 4.84263L11.1354 5.06773L23.0328 11.8662L28.3884 9.18843C27.5268 8.21265 26.1367 7.48312 23.7716 6.24203Z" fill="#24B094"/>
<path d="M29.3312 10.9479L24 13.6135V17.6621C24 18.2144 23.5523 18.6621 23 18.6621C22.4477 18.6621 22 18.2144 22 17.6621V14.6135L17.3333 16.9468V29.5341C18.2905 29.2957 19.3797 28.7241 21.1036 27.8195L23.7703 26.4201C26.6392 24.9145 28.0736 24.1619 28.8701 22.8092C29.6667 21.4565 29.6667 19.7732 29.6667 16.4068V16.2508C29.6667 13.7273 29.6667 12.1496 29.3312 10.9479Z" fill="#24B094"/>
<path d="M15.3333 29.5341V16.9468L3.33552 10.9479C3 12.1496 3 13.7273 3 16.2508V16.4068C3 19.7732 3 21.4565 3.79653 22.8092C4.59305 24.1619 6.02749 24.9145 8.89637 26.4201L11.5631 27.8195C13.287 28.7241 14.3761 29.2957 15.3333 29.5341Z" fill="#24B094"/>
<path d="M4.28125 9.18463L16.335 15.2115L20.8833 12.9374L9.03441 6.16667L8.89805 6.23823C6.53306 7.47932 5.14286 8.20885 4.28125 9.18463Z" fill="#24B094"/>
</svg>
