<svg width="32" height="32" viewBox="0 0 32 32" fill="none" xmlns="http://www.w3.org/2000/svg">
<rect width="32" height="32" rx="12.8" fill="#DFC2E3"/>
<path d="M22.1348 13.8594C22.1557 13.8676 22.189 13.8779 22.2305 13.8838V13.8848C22.9298 13.9989 23.4681 14.4747 23.665 15.1377L23.7002 15.2725C23.7115 15.3278 23.7298 15.3935 23.7422 15.4404V15.8027C23.7352 15.8211 23.7237 15.8541 23.7178 15.8945H23.7168C23.5985 16.628 23.0802 17.1831 22.3545 17.3525L22.3525 17.3535C22.2859 17.3698 22.2133 17.3904 22.1553 17.4062H21.7881C21.7865 17.4057 21.785 17.4049 21.7832 17.4043C21.7648 17.3977 21.7313 17.3863 21.6924 17.3789V17.3779L21.6836 17.377L21.5342 17.3477C20.7985 17.1685 20.2408 16.5317 20.1914 15.8086V15.8076C20.1291 14.9181 20.6317 14.183 21.4434 13.9424L21.4424 13.9414C21.5541 13.9091 21.6495 13.8916 21.7793 13.8594H22.1348ZM16.1768 13.8594C16.1784 13.86 16.1807 13.8606 16.1826 13.8613C16.2011 13.868 16.2338 13.8794 16.2725 13.8867V13.8877L16.2803 13.8887C17.0912 14.0157 17.7365 14.7187 17.7695 15.4893C17.8068 16.3334 17.3357 17.0403 16.6035 17.2979L16.4531 17.3438C16.3657 17.3663 16.2778 17.3861 16.1875 17.4062H15.8232C15.821 17.4055 15.8181 17.4043 15.8154 17.4033L15.7246 17.3779L15.7168 17.377L15.5664 17.3467C14.8286 17.1641 14.2593 16.499 14.2256 15.7754V15.7744C14.1827 14.8755 14.7234 14.1315 15.541 13.9219L15.54 13.9209C15.6297 13.8985 15.7176 13.8792 15.8066 13.8594H16.1768ZM10.209 13.8594C10.2128 13.8607 10.2166 13.8622 10.2197 13.8633C10.2394 13.8698 10.2725 13.8775 10.3125 13.8828V13.8848C11.1265 14.0118 11.7546 14.6878 11.8047 15.4688C11.8616 16.3544 11.3544 17.0878 10.5381 17.3262L10.5361 17.3271C10.4337 17.3577 10.3332 17.3782 10.2158 17.4062H9.86035C9.84286 17.3989 9.81666 17.387 9.78613 17.3799H9.78711L9.77539 17.3779L9.63672 17.3486C9.3212 17.2715 9.06501 17.1389 8.86035 16.958C8.62662 16.7513 8.44762 16.4694 8.3291 16.1006L8.32715 16.0977L8.29004 15.958C8.28077 15.9181 8.26978 15.8696 8.25781 15.8213V15.459C8.26484 15.4405 8.27535 15.4075 8.28125 15.3672L8.2832 15.3682C8.40493 14.6306 8.92032 14.0785 9.64551 13.9092H9.64844C9.71448 13.8929 9.77802 13.8757 9.83984 13.8594H10.209Z" fill="#4E2775" stroke="#4E2775" stroke-width="0.515016"/>
</svg>
