<svg width="32" height="32" viewBox="0 0 32 32" fill="none" xmlns="http://www.w3.org/2000/svg">
<path fill-rule="evenodd" clip-rule="evenodd" d="M29.6667 16.3333C29.6667 23.6971 23.6971 29.6667 16.3333 29.6667C8.96953 29.6667 3 23.6971 3 16.3333C3 8.96953 8.96953 3 16.3333 3C23.6971 3 29.6667 8.96953 29.6667 16.3333ZM11 17.6667C11.7364 17.6667 12.3333 17.0697 12.3333 16.3333C12.3333 15.5969 11.7364 15 11 15C10.2636 15 9.66667 15.5969 9.66667 16.3333C9.66667 17.0697 10.2636 17.6667 11 17.6667ZM16.3333 17.6667C17.0697 17.6667 17.6667 17.0697 17.6667 16.3333C17.6667 15.5969 17.0697 15 16.3333 15C15.5969 15 15 15.5969 15 16.3333C15 17.0697 15.5969 17.6667 16.3333 17.6667ZM21.6667 17.6667C22.4031 17.6667 23 17.0697 23 16.3333C23 15.5969 22.4031 15 21.6667 15C20.9303 15 20.3333 15.5969 20.3333 16.3333C20.3333 17.0697 20.9303 17.6667 21.6667 17.6667Z" fill="#24B094"/>
</svg>
