<svg width="33" height="32" viewBox="0 0 33 32" fill="none" xmlns="http://www.w3.org/2000/svg">
<rect x="0.333252" width="31.9993" height="32" rx="12.7997" fill="#DFC2E3"/>
<g clip-path="url(#clip0_6116_113404)">
<path d="M17.1327 11.3163C18.2696 11.3163 19.1913 10.3946 19.1913 9.25774C19.1913 8.12085 18.2696 7.19922 17.1327 7.19922C15.9958 7.19922 15.0742 8.12085 15.0742 9.25774C15.0742 10.3946 15.9958 11.3163 17.1327 11.3163Z" fill="#4E2775"/>
<path d="M17.1328 24.7991C17.8149 24.7991 18.3678 24.2461 18.3678 23.5641C18.3678 22.882 17.8149 22.3291 17.1328 22.3291C16.4507 22.3291 15.8978 22.882 15.8978 23.5641C15.8978 24.2461 16.4507 24.7991 17.1328 24.7991Z" fill="#4E2775"/>
<path d="M12.0746 13.2046C13.0979 13.2046 13.9274 12.3751 13.9274 11.3518C13.9274 10.3286 13.0979 9.49902 12.0746 9.49902C11.0513 9.49902 10.2218 10.3286 10.2218 11.3518C10.2218 12.3751 11.0513 13.2046 12.0746 13.2046Z" fill="#4E2775"/>
<path d="M22.1909 22.497C22.7593 22.497 23.2201 22.0362 23.2201 21.4677C23.2201 20.8993 22.7593 20.4385 22.1909 20.4385C21.6224 20.4385 21.1616 20.8993 21.1616 21.4677C21.1616 22.0362 21.6224 22.497 22.1909 22.497Z" fill="#4E2775"/>
<path d="M9.97942 18.0575C10.8887 18.0575 11.6258 17.3204 11.6258 16.4111C11.6258 15.5018 10.8887 14.7646 9.97942 14.7646C9.07013 14.7646 8.33301 15.5018 8.33301 16.4111C8.33301 17.3204 9.07013 18.0575 9.97942 18.0575Z" fill="#4E2775"/>
<path d="M24.2855 17.2336C24.74 17.2336 25.1084 16.8652 25.1084 16.4108C25.1084 15.9563 24.74 15.5879 24.2855 15.5879C23.8311 15.5879 23.4626 15.9563 23.4626 16.4108C23.4626 16.8652 23.8311 17.2336 24.2855 17.2336Z" fill="#4E2775"/>
<path d="M11.0561 20.4512C10.493 21.0142 10.493 21.9253 11.0561 22.4883C11.6185 23.0514 12.5308 23.0514 13.0932 22.4883C13.6563 21.9253 13.6563 21.0142 13.0932 20.4512C12.5308 19.8874 11.6191 19.8821 11.0561 20.4512Z" fill="#4E2775"/>
<path d="M22.1903 11.9697C22.5311 11.9697 22.8074 11.6934 22.8074 11.3525C22.8074 11.0117 22.5311 10.7354 22.1903 10.7354C21.8494 10.7354 21.5731 11.0117 21.5731 11.3525C21.5731 11.6934 21.8494 11.9697 22.1903 11.9697Z" fill="#4E2775"/>
</g>
<defs>
<clipPath id="clip0_6116_113404">
<rect width="19.1996" height="19.2003" fill="white" transform="translate(6.73315 6.39941)"/>
</clipPath>
</defs>
</svg>
