<svg width="32" height="32" viewBox="0 0 32 32" fill="none" xmlns="http://www.w3.org/2000/svg">
<path fill-rule="evenodd" clip-rule="evenodd" d="M16.3333 21.6667C21.488 21.6667 25.6667 17.488 25.6667 12.3333C25.6667 7.17868 21.488 3 16.3333 3C11.1787 3 7 7.17868 7 12.3333C7 17.488 11.1787 21.6667 16.3333 21.6667ZM16.3333 8.33333C15.9545 8.33333 15.7012 8.78779 15.1945 9.69668L15.0635 9.93183C14.9196 10.1901 14.8476 10.3193 14.7353 10.4045C14.6231 10.4897 14.4833 10.5213 14.2037 10.5845L13.9492 10.6421C12.9653 10.8648 12.4733 10.9761 12.3563 11.3524C12.2393 11.7288 12.5746 12.121 13.2454 12.9053L13.4189 13.1082C13.6095 13.3311 13.7048 13.4425 13.7477 13.5804C13.7905 13.7183 13.7761 13.8669 13.7473 14.1644L13.7211 14.4351C13.6197 15.4816 13.569 16.0048 13.8753 16.2375C14.1819 16.47 14.6424 16.258 15.5636 15.8339L15.8019 15.7241C16.0637 15.6036 16.1945 15.5433 16.3333 15.5433C16.4721 15.5433 16.6029 15.6036 16.8648 15.7241L17.1031 15.8339C18.0243 16.258 18.4848 16.47 18.7913 16.2375C19.0977 16.0048 19.0469 15.4816 18.9456 14.4351L18.9193 14.1644C18.8905 13.8669 18.8761 13.7183 18.9189 13.5804C18.9619 13.4425 19.0572 13.3311 19.2477 13.1082L19.4213 12.9053C20.092 12.121 20.4275 11.7288 20.3104 11.3524C20.1933 10.9761 19.7013 10.8648 18.7175 10.6421L18.4629 10.5845C18.1833 10.5213 18.0436 10.4897 17.9313 10.4045C17.8191 10.3193 17.7471 10.1901 17.6032 9.93183L17.4721 9.69668C16.9655 8.78779 16.7121 8.33333 16.3333 8.33333Z" fill="#24B094"/>
<path d="M6.32689 17.6562L4.32274 19.7314C3.60258 20.477 3.2425 20.8499 3.1179 21.1656C2.83397 21.8851 3.07696 22.6832 3.69517 23.0616C3.96648 23.2277 4.45582 23.2794 5.43452 23.383C5.98706 23.4414 6.2634 23.4706 6.4948 23.5593C7.01288 23.758 7.41588 24.1752 7.60766 24.7116C7.69333 24.9512 7.72156 25.2373 7.778 25.8095C7.87797 26.8228 7.92796 27.3294 8.08837 27.6104C8.45389 28.2505 9.22469 28.5021 9.91956 28.2081C10.2245 28.0791 10.5846 27.7063 11.3047 26.9607L14.6141 23.534C11.0174 22.9867 7.97633 20.7488 6.32689 17.6562Z" fill="#24B094"/>
<path d="M18.0521 23.534L21.3615 26.9607C22.0817 27.7063 22.4417 28.0791 22.7466 28.2081C23.4416 28.5021 24.2123 28.2505 24.5778 27.6104C24.7382 27.3294 24.7882 26.8228 24.8882 25.8095C24.9446 25.2373 24.9729 24.9512 25.0585 24.7116C25.2503 24.1752 25.6533 23.758 26.1714 23.5593C26.4029 23.4706 26.6791 23.4414 27.2317 23.383C28.2104 23.2794 28.6997 23.2277 28.971 23.0616C29.5893 22.6832 29.8322 21.8851 29.5483 21.1656C29.4237 20.8499 29.0637 20.477 28.3434 19.7314L26.3393 17.6562C24.6898 20.7488 21.6488 22.9867 18.0521 23.534Z" fill="#24B094"/>
</svg>
