<svg width="33" height="32" viewBox="0 0 33 32" fill="none" xmlns="http://www.w3.org/2000/svg">
<rect x="0.333252" width="32" height="32" rx="12.8" fill="#DFC2E3"/>
<g clip-path="url(#clip0_6116_113422)">
<path fill-rule="evenodd" clip-rule="evenodd" d="M9.19422 10.8942C9.31805 10.5953 9.60976 10.4004 9.93333 10.4004H17.9333C21.0261 10.4004 23.5333 12.9076 23.5333 16.0004C23.5333 19.0932 21.0261 21.6004 17.9333 21.6004H10.7333C10.2915 21.6004 9.93333 21.2422 9.93333 20.8004C9.93333 20.3586 10.2915 20.0004 10.7333 20.0004H17.9333C20.1425 20.0004 21.9333 18.2095 21.9333 16.0004C21.9333 13.7913 20.1425 12.0004 17.9333 12.0004H11.8647L13.299 13.4347C13.6114 13.7471 13.6114 14.2537 13.299 14.5661C12.9866 14.8785 12.4801 14.8785 12.1676 14.5661L9.36764 11.7661C9.13884 11.5373 9.0704 11.1932 9.19422 10.8942Z" fill="#4E2775"/>
</g>
<defs>
<clipPath id="clip0_6116_113422">
<rect width="19.2" height="19.2" fill="white" transform="translate(6.73328 6.40039)"/>
</clipPath>
</defs>
</svg>
