<svg width="24" height="24" viewBox="0 0 24 24" fill="none" xmlns="http://www.w3.org/2000/svg">
<path d="M11.9897 2.75019C10.4943 2.73932 8.97158 3.31769 7.98583 4.46482C7.11146 5.39044 6.78133 6.70244 6.82533 7.94832C6.82158 8.58819 6.82933 9.22794 6.83158 9.86769C6.21896 9.71557 5.59746 9.28969 4.94871 9.50057C4.39596 9.66469 4.16533 10.3866 4.49921 10.8494C4.85871 11.3196 5.41746 11.5878 5.88421 11.9382C6.11383 12.1257 6.42333 12.2596 6.59421 12.5006C6.59408 13.0781 6.29108 13.6127 6.00396 14.0988C5.30433 15.1991 4.21121 16.0402 3.04083 16.6213C2.74208 16.7507 2.46708 17.1393 2.73171 17.4337C3.21446 17.8864 3.89758 18.0309 4.50608 18.2444C4.76196 18.3244 5.14083 18.4119 5.11683 18.7549C5.15871 19.1203 5.39246 19.5132 5.80333 19.5147C6.78746 19.6284 7.83946 19.5799 8.72146 20.1073C9.58608 20.6081 10.4761 21.1664 11.5033 21.2273C12.5268 21.3232 13.5812 21.1163 14.4586 20.5704C15.1123 20.2099 15.7496 19.7608 16.5156 19.6878C17.16 19.5371 17.8533 19.6689 18.4762 19.4288C18.8753 19.2579 18.8215 18.7733 18.9892 18.4528C19.3057 18.2344 19.7105 18.2093 20.063 18.0651C20.5238 17.8813 21.1048 17.7402 21.3465 17.2634C21.49 16.8837 21.0575 16.6762 20.7898 16.5284C19.3673 15.7942 18.086 14.6633 17.5247 13.1296C17.4627 12.8876 17.2398 12.5253 17.5352 12.3477C18.1543 11.8257 18.9618 11.5258 19.4745 10.8833C19.8623 10.3978 19.5921 9.56457 18.9568 9.46807C18.3408 9.37057 17.7662 9.70469 17.1878 9.85894C17.1373 8.79269 17.2506 7.70494 17.0908 6.64069C16.7872 4.91469 15.4016 3.49607 13.7392 3.00019C13.1741 2.82507 12.581 2.74557 11.9897 2.75019Z" stroke="#424746" stroke-width="1.5" stroke-linejoin="round"/>
</svg>
