<svg width="24" height="24" viewBox="0 0 24 24" fill="none" xmlns="http://www.w3.org/2000/svg">
<path d="M20.4 10.6C20.4 10.82 20.22 11.001 20 10.99C18.8246 10.9311 17.6766 10.6135 16.638 10.06C16.357 9.91 16 10.105 16 10.424V16C15.9999 17.1696 15.658 18.3137 15.0163 19.2916C14.3745 20.2695 13.461 21.0385 12.388 21.504C11.315 21.9695 10.1293 22.1112 8.97682 21.9118C7.82432 21.7123 6.75525 21.1803 5.90109 20.3813C5.04694 19.5823 4.44495 18.551 4.16917 17.4144C3.89339 16.2777 3.95584 15.0852 4.34885 13.9836C4.74186 12.882 5.44828 11.9192 6.38123 11.2138C7.31418 10.5083 8.43297 10.091 9.6 10.013C9.65215 10.0102 9.70432 10.0183 9.75323 10.0366C9.80215 10.0549 9.84677 10.0831 9.8843 10.1194C9.92184 10.1557 9.95148 10.1993 9.97139 10.2476C9.9913 10.2959 10.001 10.3478 10 10.4V13.2C10 13.42 9.82 13.597 9.602 13.633C9.15069 13.7089 8.73048 13.9122 8.39092 14.2191C8.05137 14.5259 7.80662 14.9234 7.68553 15.3648C7.56444 15.8061 7.57207 16.2729 7.70751 16.71C7.84294 17.1472 8.10055 17.5365 8.44994 17.8321C8.79934 18.1276 9.22597 18.3172 9.67952 18.3783C10.1331 18.4394 10.5946 18.3695 11.0098 18.177C11.425 17.9844 11.7764 17.6772 12.0228 17.2915C12.2691 16.9057 12.4 16.4577 12.4 16V3.4C12.4 3.29391 12.4421 3.19217 12.5172 3.11716C12.5922 3.04214 12.6939 3 12.8 3H15.6C15.7069 3.00273 15.809 3.04522 15.8863 3.11919C15.9636 3.19315 16.0106 3.29328 16.018 3.4C16.1115 4.42472 16.5612 5.38426 17.2889 6.11177C18.0166 6.83928 18.9763 7.28874 20.001 7.382C20.221 7.402 20.401 7.579 20.401 7.8L20.4 10.6Z" stroke="#424746" stroke-width="1.5" stroke-linecap="round" stroke-linejoin="round"/>
</svg>
