<svg width="20" height="20" viewBox="0 0 20 20" fill="none" xmlns="http://www.w3.org/2000/svg">
<path d="M13.75 8.5H15.25C16.75 8.5 17.5 7.75 17.5 6.25V4.75C17.5 3.25 16.75 2.5 15.25 2.5H13.75C12.25 2.5 11.5 3.25 11.5 4.75V6.25C11.5 7.75 12.25 8.5 13.75 8.5Z" stroke="#424746" stroke-width="1.25" stroke-miterlimit="10" stroke-linecap="round" stroke-linejoin="round"/>
<path d="M4.75 17.5H6.25C7.75 17.5 8.5 16.75 8.5 15.25V13.75C8.5 12.25 7.75 11.5 6.25 11.5H4.75C3.25 11.5 2.5 12.25 2.5 13.75V15.25C2.5 16.75 3.25 17.5 4.75 17.5Z" stroke="#424746" stroke-width="1.25" stroke-miterlimit="10" stroke-linecap="round" stroke-linejoin="round"/>
<path d="M5.5 8.5C7.15685 8.5 8.5 7.15685 8.5 5.5C8.5 3.84314 7.15685 2.5 5.5 2.5C3.84314 2.5 2.5 3.84314 2.5 5.5C2.5 7.15685 3.84314 8.5 5.5 8.5Z" stroke="#424746" stroke-width="1.25" stroke-miterlimit="10" stroke-linecap="round" stroke-linejoin="round"/>
<path d="M14.5 17.5C16.1568 17.5 17.5 16.1568 17.5 14.5C17.5 12.8432 16.1568 11.5 14.5 11.5C12.8432 11.5 11.5 12.8432 11.5 14.5C11.5 16.1568 12.8432 17.5 14.5 17.5Z" stroke="#424746" stroke-width="1.25" stroke-miterlimit="10" stroke-linecap="round" stroke-linejoin="round"/>
</svg>
