<svg width="20" height="20" viewBox="0 0 20 20" fill="none" xmlns="http://www.w3.org/2000/svg">
<g clip-path="url(#clip0_4418_63037)">
<path d="M2.5 3.9375H12.5C12.8915 3.9375 13.2691 4.07342 13.5693 4.31934L13.6934 4.43164C14.0098 4.74811 14.1875 5.17745 14.1875 5.625V6.75H15.416C17.5064 6.7502 19.1875 8.35689 19.1875 10.3125V13.125C19.1875 13.5165 19.0516 13.8941 18.8057 14.1943L18.6934 14.3184C18.3769 14.6348 17.9476 14.8125 17.5 14.8125H15.4277L15.5557 15.0811C15.7007 15.3858 15.7661 15.7226 15.7461 16.0596C15.7285 16.3544 15.646 16.6411 15.5049 16.8994L15.4414 17.0078C15.2836 17.2577 15.0726 17.4698 14.8242 17.6279L14.7158 17.6924C14.4201 17.8554 14.0877 17.9404 13.75 17.9404C13.4546 17.9404 13.1637 17.8745 12.8975 17.749L12.7842 17.6924C12.5256 17.5498 12.3024 17.3516 12.1299 17.1133L12.0586 17.0078C11.9009 16.758 11.8006 16.4768 11.7646 16.1846L11.7539 16.0596C11.7339 15.7226 11.7993 15.3858 11.9443 15.0811L12.0723 14.8125H6.99023L7.11816 15.0811C7.24505 15.3476 7.31134 15.6384 7.3125 15.9326L7.30859 16.0596C7.291 16.3544 7.20853 16.6411 7.06738 16.8994L7.00391 17.0078C6.84613 17.2577 6.63514 17.4698 6.38672 17.6279L6.27832 17.6924C5.98262 17.8554 5.65016 17.9404 5.3125 17.9404C5.01712 17.9404 4.7262 17.8745 4.45996 17.749L4.34668 17.6924C4.08808 17.5498 3.86492 17.3516 3.69238 17.1133L3.62109 17.0078C3.44107 16.7225 3.33649 16.3963 3.31641 16.0596C3.29638 15.7226 3.36178 15.3858 3.50684 15.0811L3.63477 14.8125H2.5C2.10849 14.8125 1.73091 14.6766 1.43066 14.4307L1.30664 14.3184C0.990173 14.0019 0.8125 13.5726 0.8125 13.125V5.625L0.820312 5.45801C0.853205 5.12705 0.983593 4.81296 1.19434 4.55566L1.30664 4.43164C1.58351 4.15477 1.94676 3.9837 2.33301 3.94531L2.5 3.9375ZM5.3125 14.8125C5.14572 14.8125 4.98161 14.8493 4.83203 14.9199L4.6875 15.002C4.50256 15.1255 4.3586 15.3014 4.27344 15.5068C4.20959 15.661 4.18043 15.8269 4.18848 15.9922L4.20898 16.1572C4.24155 16.3208 4.30975 16.4745 4.4082 16.6074L4.5166 16.7334C4.63454 16.8513 4.7769 16.9412 4.93262 16.9971L5.09277 17.041C5.311 17.0844 5.5376 17.0617 5.74316 16.9766C5.89718 16.9127 6.03438 16.8158 6.14551 16.6934L6.24805 16.5625C6.37163 16.3775 6.4375 16.16 6.4375 15.9375C6.4375 15.6764 6.34664 15.4248 6.18262 15.2246L6.1084 15.1416C5.89742 14.9306 5.61087 14.8125 5.3125 14.8125ZM13.75 14.8125C13.5832 14.8125 13.4191 14.8493 13.2695 14.9199L13.125 15.002C12.9401 15.1255 12.7961 15.3014 12.7109 15.5068C12.6471 15.661 12.6179 15.8269 12.626 15.9922L12.6465 16.1572C12.679 16.3208 12.7473 16.4745 12.8457 16.6074L12.9541 16.7334C13.072 16.8513 13.2144 16.9412 13.3701 16.9971L13.5303 17.041C13.7485 17.0844 13.9751 17.0617 14.1807 16.9766C14.3861 16.8914 14.562 16.7474 14.6855 16.5625C14.8091 16.3775 14.875 16.16 14.875 15.9375C14.875 15.6764 14.7841 15.4248 14.6201 15.2246L14.5459 15.1416C14.3349 14.9306 14.0484 14.8125 13.75 14.8125ZM2.5 4.8125C2.31161 4.8125 2.12987 4.87782 1.98535 4.99609L1.92578 5.05078C1.77341 5.20315 1.6875 5.40951 1.6875 5.625V13.125C1.6875 13.3134 1.75282 13.4951 1.87109 13.6396L1.92578 13.6992C2.07815 13.8516 2.28451 13.9375 2.5 13.9375H13.3125V5.625C13.3125 5.43661 13.2472 5.25487 13.1289 5.11035L13.0742 5.05078C12.9218 4.89841 12.7155 4.8125 12.5 4.8125H2.5ZM14.1875 13.9375H17.5C17.7155 13.9375 17.9218 13.8516 18.0742 13.6992C18.2266 13.5468 18.3125 13.3405 18.3125 13.125V10.3125C18.3125 8.81704 16.9987 7.6252 15.416 7.625H14.1875V13.9375Z" fill="#424746" stroke="#424746" stroke-width="0.375"/>
</g>
<defs>
<clipPath id="clip0_4418_63037">
<rect width="20" height="20" fill="white"/>
</clipPath>
</defs>
</svg>
