<svg width="24" height="24" viewBox="0 0 24 24" fill="none" xmlns="http://www.w3.org/2000/svg">
<path fill-rule="evenodd" clip-rule="evenodd" d="M5.69767 2C6.08299 2 6.39535 2.31236 6.39535 2.69767V3.70712L7.85914 3.41435C9.52724 3.08074 11.2564 3.23949 12.8358 3.87127L13.2203 4.02505C14.4095 4.50076 15.7185 4.5896 16.9611 4.27894C18.1512 3.98144 19.1067 5.27118 18.4756 6.32297L17.2863 8.30519C16.9362 8.88876 16.88 9.00914 16.8657 9.11884C16.8579 9.17889 16.8579 9.23971 16.8657 9.29977C16.88 9.40946 16.9362 9.52984 17.2863 10.1134L18.738 12.533C19.2683 13.4167 18.7941 14.5613 17.7944 14.8113L17.7013 14.8345C15.9129 15.2816 14.0291 15.1538 12.3176 14.4691C10.9894 13.9379 9.53546 13.8044 8.1328 14.0849L6.39535 14.4325V21.3023C6.39535 21.6876 6.08299 22 5.69767 22C5.31236 22 5 21.6876 5 21.3023V2.69767C5 2.31236 5.31236 2 5.69767 2ZM6.39535 13.0094L7.85914 12.7167C9.52724 12.3831 11.2564 12.5419 12.8358 13.1736C14.275 13.7493 15.8591 13.8567 17.3629 13.4808L17.456 13.4576C17.5467 13.4349 17.5897 13.3311 17.5416 13.2509L16.0899 10.8313C16.0713 10.8006 16.053 10.7701 16.0349 10.74C15.7716 10.3029 15.5392 9.91679 15.4821 9.48071C15.4586 9.30054 15.4586 9.11806 15.4821 8.9379C15.5392 8.50182 15.7716 8.11573 16.0349 7.67864C16.053 7.64845 16.0713 7.61801 16.0899 7.58729L17.2562 5.64333C15.742 6.01232 14.1499 5.89972 12.702 5.3206L12.3176 5.16682C10.9894 4.63556 9.53546 4.50207 8.1328 4.7826L6.39535 5.13009V13.0094Z" fill="#424746"/>
</svg>
