<svg width="20" height="20" viewBox="0 0 20 20" fill="none" xmlns="http://www.w3.org/2000/svg">
<path d="M1.97014 10.7996C1.65394 8.60197 1.49584 7.50321 1.94622 6.56376C2.3966 5.6243 3.35524 5.05325 5.2725 3.91114L6.42654 3.22369C8.16761 2.18654 9.03816 1.66797 10.0001 1.66797C10.962 1.66797 11.8326 2.18654 13.5736 3.22369L14.7277 3.91114C16.6449 5.05325 17.6036 5.6243 18.0539 6.56376C18.5043 7.50321 18.3462 8.60197 18.03 10.7996L17.7977 12.414C17.3915 15.2369 17.1884 16.6483 16.2092 17.4915C15.23 18.3346 13.7939 18.3346 10.9218 18.3346H9.07833C6.20622 18.3346 4.77015 18.3346 3.79094 17.4915C2.81171 16.6483 2.60862 15.2369 2.20245 12.414L1.97014 10.7996Z" stroke="#424746" stroke-width="1.25"/>
<path d="M10 12.502V15.002" stroke="#424746" stroke-width="1.25" stroke-linecap="round"/>
</svg>
