<svg width="24" height="24" viewBox="0 0 24 24" fill="none" xmlns="http://www.w3.org/2000/svg">
<path d="M2 10.1357V5.29117C2.05798 4.5305 2.60107 4.00935 3.29117 4H8.13572C8.77837 4.01077 9.377 4.24327 9.90175 4.56022L17.494 12.8995C17.9518 13.4873 17.9753 14.2189 17.494 14.7135L11.8812 20.305C11.314 20.7944 10.5192 20.8387 10.0671 20.305L2.9177 12.3446C2.41513 11.7226 2.00745 10.9039 2 10.1357ZM4.44897 8.21497C4.98513 8.7093 5.75467 8.66357 6.21498 8.21497C6.70708 7.68333 6.66598 6.90578 6.21498 6.44895C5.68265 5.96437 4.90742 6.00282 4.44897 6.44895C3.96232 7.01732 3.9806 7.72739 4.44897 8.21497ZM10.4406 4.02133H12.2974C13.0758 4.06933 13.9969 4.37608 14.4956 4.93903L21.645 12.9208C22.1281 13.4786 22.1085 14.2798 21.645 14.7562L16.0535 20.3477C15.2786 20.787 14.5684 20.7563 14.0901 20.1983L19.5749 14.7135C20.0687 14.167 20.016 13.3789 19.5749 12.8994L13.177 5.74087C12.4197 4.79565 10.7892 4.064 10.4406 4.02133Z" fill="#424746"/>
</svg>
