<svg width="20" height="20" viewBox="0 0 20 20" fill="none" xmlns="http://www.w3.org/2000/svg">
<path d="M10.1042 14.166H10.1095" stroke="#424746" stroke-width="1.04167" stroke-linecap="round" stroke-linejoin="round"/>
<path d="M7.5 8.4362C7.5 7.84994 7.69372 7.30894 8.02064 6.8737C8.49575 6.24117 9.25219 5.83203 10.1042 5.83203C11.5424 5.83203 12.7083 6.99796 12.7083 8.4362C12.7083 9.69724 11.812 10.749 10.6217 10.989C10.3397 11.0458 10.1042 11.2735 10.1042 11.5612V12.082" stroke="#424746" stroke-width="1.04167" stroke-linecap="round"/>
<path d="M10.0001 18.3327C14.6025 18.3327 18.3334 14.6017 18.3334 9.99935C18.3334 5.39698 14.6025 1.66602 10.0001 1.66602C5.39771 1.66602 1.66675 5.39698 1.66675 9.99935C1.66675 14.6017 5.39771 18.3327 10.0001 18.3327Z" stroke="#424746" stroke-width="1.04167"/>
</svg>
