<svg width="20" height="20" viewBox="0 0 20 20" fill="none" xmlns="http://www.w3.org/2000/svg">
<path d="M4.11523 1.67773H4.25195C4.75327 1.67773 5.22291 1.92446 5.54492 2.34863L5.67383 2.54004C5.73448 2.64361 5.84357 2.70186 5.95605 2.71094C6.04045 2.71775 6.12728 2.69716 6.19727 2.64746L6.26074 2.58789C6.74396 2.00033 7.38423 1.67781 8.06348 1.67773C8.658 1.67773 9.22308 1.9245 9.67871 2.37988L9.86621 2.58789C9.98685 2.73499 10.2161 2.75204 10.3633 2.64258L10.4209 2.58789C10.9041 2.00033 11.5444 1.67784 12.2236 1.67773C12.8221 1.67773 13.3875 1.92457 13.8428 2.37988L14.0312 2.58789C14.1068 2.67945 14.2236 2.71902 14.3359 2.70996C14.4201 2.70311 14.5029 2.66891 14.5645 2.60938L14.6191 2.54102V2.54004C14.9358 1.9996 15.4672 1.67773 16.04 1.67773H16.1631C17.047 1.67798 17.7666 2.39712 17.7666 3.28125V16.7178C17.7666 17.6017 17.047 18.3211 16.1631 18.3213H16.04C15.5388 18.3213 15.0689 18.0747 14.7471 17.6504L14.6182 17.457C14.5583 17.3552 14.4493 17.2981 14.3369 17.2891C14.2525 17.2823 14.1651 17.3022 14.0947 17.3516L14.0312 17.4111C13.5489 17.9981 12.9079 18.3213 12.2285 18.3213C11.6299 18.3212 11.065 18.0735 10.6094 17.6182L10.4209 17.4111C10.301 17.2648 10.0725 17.2459 9.9248 17.3555L9.86621 17.4102C9.38293 17.9978 8.74282 18.3213 8.06348 18.3213C7.46905 18.3212 6.90478 18.0735 6.44922 17.6182L6.26074 17.4111C6.18489 17.3184 6.06757 17.279 5.95508 17.2881C5.87092 17.295 5.78867 17.3289 5.72754 17.3887L5.67383 17.457C5.35606 17.9985 4.82454 18.3213 4.25195 18.3213H4.11523C3.23117 18.3213 2.51177 17.6018 2.51172 16.7178V3.28125C2.51172 2.39716 3.23114 1.67773 4.11523 1.67773ZM4.11523 3.04395C3.98419 3.04395 3.87793 3.1502 3.87793 3.28125V16.7178C3.87798 16.8488 3.98422 16.9551 4.11523 16.9551H4.25293C4.3155 16.9549 4.37006 16.9178 4.41113 16.877C4.4319 16.8563 4.44968 16.834 4.46387 16.8145L4.49512 16.7676C4.80289 16.2416 5.37315 15.9133 5.9834 15.9131C6.43632 15.9131 6.86522 16.0892 7.18555 16.4014L7.31641 16.543C7.44191 16.6953 7.70724 16.955 8.06348 16.9551C8.33064 16.9551 8.547 16.8092 8.69141 16.6719L8.81152 16.543C9.42822 15.7927 10.6536 15.7456 11.3457 16.4023L11.4766 16.543C11.6021 16.6953 11.8674 16.9549 12.2236 16.9551C12.4946 16.9551 12.7119 16.8092 12.8564 16.6719L12.9756 16.543C13.3054 16.1425 13.7912 15.9131 14.3086 15.9131C14.9183 15.9131 15.4892 16.2411 15.7979 16.7676V16.7666C15.8106 16.7885 15.8395 16.8357 15.8809 16.877C15.922 16.9179 15.9772 16.9551 16.04 16.9551H16.1631C16.2939 16.9548 16.4003 16.8486 16.4004 16.7178V3.28125C16.4004 3.15035 16.2939 3.04419 16.1631 3.04395H16.04C15.9772 3.04395 15.9219 3.08119 15.8809 3.12207C15.8604 3.14246 15.8431 3.16431 15.8291 3.18359L15.7979 3.23145C15.4888 3.75849 14.9181 4.08495 14.3086 4.08496C13.856 4.08496 13.4281 3.90943 13.1074 3.59766L12.9766 3.45605C12.8506 3.3027 12.5849 3.04395 12.2285 3.04395C11.9576 3.04402 11.7403 3.18971 11.5957 3.32715L11.4766 3.45605C10.8605 4.20584 9.63503 4.25298 8.94238 3.5957L8.81152 3.45508C8.68597 3.30268 8.41979 3.04395 8.06348 3.04395C7.79617 3.04403 7.57991 3.18975 7.43555 3.32715L7.31641 3.45605C6.98779 3.85633 6.50122 4.08496 5.9834 4.08496C5.41128 4.0848 4.87448 3.79715 4.55566 3.32715L4.49414 3.23145C4.48158 3.21008 4.45252 3.16324 4.41113 3.12207C4.3701 3.08125 4.31557 3.04413 4.25293 3.04395H4.11523ZM5.97266 10.6982H11.5234C11.9019 10.6982 12.209 11.0053 12.209 11.3838C12.2088 11.7622 11.9018 12.0684 11.5234 12.0684H5.97266C5.59426 12.0684 5.28725 11.7622 5.28711 11.3838C5.28711 11.0053 5.59418 10.6983 5.97266 10.6982ZM5.97168 7.22852H14.3057C14.6828 7.22859 14.9882 7.534 14.9883 7.91113C14.9883 8.28831 14.6828 8.59466 14.3057 8.59473H5.97168C5.59465 8.5945 5.28906 8.28822 5.28906 7.91113C5.28912 7.5341 5.59469 7.22874 5.97168 7.22852Z" fill="#424746" stroke="#424746" stroke-width="0.0227866"/>
</svg>
