<svg width="24" height="24" viewBox="0 0 24 24" fill="none" xmlns="http://www.w3.org/2000/svg">
<path d="M17.7767 8H16.6667V7C16.6667 6.46957 16.456 5.96086 16.0809 5.58579C15.7058 5.21071 15.1971 5 14.6667 5H4C3.46957 5 2.96086 5.21071 2.58579 5.58579C2.21071 5.96086 2 6.46957 2 7V15C2 15.5304 2.21071 16.0391 2.58579 16.4142C2.96086 16.7893 3.46957 17 4 17H4.89333C4.72397 17.3557 4.6474 17.7484 4.67078 18.1417C4.69416 18.5349 4.81671 18.9158 5.02703 19.2489C5.23734 19.582 5.52857 19.8564 5.87356 20.0466C6.21854 20.2368 6.60607 20.3365 7 20.3365C7.39393 20.3365 7.78146 20.2368 8.12644 20.0466C8.47143 19.8564 8.76266 19.582 8.97297 19.2489C9.18329 18.9158 9.30584 18.5349 9.32922 18.1417C9.3526 17.7484 9.27604 17.3557 9.10667 17H13.8933C13.724 17.3557 13.6474 17.7484 13.6708 18.1417C13.6942 18.5349 13.8167 18.9158 14.027 19.2489C14.2373 19.582 14.5286 19.8564 14.8736 20.0466C15.2185 20.2368 15.6061 20.3365 16 20.3365C16.3939 20.3365 16.7815 20.2368 17.1264 20.0466C17.4714 19.8564 17.7627 19.582 17.973 19.2489C18.1833 18.9158 18.3058 18.5349 18.3292 18.1417C18.3526 17.7484 18.276 17.3557 18.1067 17H20C20.5304 17 21.0391 16.7893 21.4142 16.4142C21.7893 16.0391 22 15.5304 22 15V12C22 9.79333 20.1067 8 17.7767 8ZM3.33333 15V7C3.33333 6.82319 3.40357 6.65362 3.5286 6.5286C3.65362 6.40357 3.82319 6.33333 4 6.33333H14.6667C14.8435 6.33333 15.013 6.40357 15.1381 6.5286C15.2631 6.65362 15.3333 6.82319 15.3333 7V15.6667H4C3.82319 15.6667 3.65362 15.5964 3.5286 15.4714C3.40357 15.3464 3.33333 15.1768 3.33333 15ZM8 18C8 18.1978 7.94135 18.3911 7.83147 18.5556C7.72159 18.72 7.56541 18.8482 7.38268 18.9239C7.19996 18.9996 6.99889 19.0194 6.80491 18.9808C6.61093 18.9422 6.43275 18.847 6.29289 18.7071C6.15304 18.5673 6.0578 18.3891 6.01921 18.1951C5.98063 18.0011 6.00043 17.8 6.07612 17.6173C6.15181 17.4346 6.27998 17.2784 6.44443 17.1685C6.60888 17.0586 6.80222 17 7 17C7.26522 17 7.51957 17.1054 7.70711 17.2929C7.89464 17.4804 8 17.7348 8 18ZM17 18C17 18.1978 16.9414 18.3911 16.8315 18.5556C16.7216 18.72 16.5654 18.8482 16.3827 18.9239C16.2 18.9996 15.9989 19.0194 15.8049 18.9808C15.6109 18.9422 15.4327 18.847 15.2929 18.7071C15.153 18.5673 15.0578 18.3891 15.0192 18.1951C14.9806 18.0011 15.0004 17.8 15.0761 17.6173C15.1518 17.4346 15.28 17.2784 15.4444 17.1685C15.6089 17.0586 15.8022 17 16 17C16.2652 17 16.5196 17.1054 16.7071 17.2929C16.8946 17.4804 17 17.7348 17 18ZM20.6667 15C20.6667 15.1768 20.5964 15.3464 20.4714 15.4714C20.3464 15.5964 20.1768 15.6667 20 15.6667H16.6667V9.33333H17.7767C19.37 9.33333 20.6667 10.53 20.6667 12V15Z" fill="#424746"/>
</svg>
