<svg width="20" height="20" viewBox="0 0 20 20" fill="none" xmlns="http://www.w3.org/2000/svg">
<path d="M10.8477 0.983398C11.1699 0.91281 11.561 0.954463 11.8516 1.0957L12 1.1709C12.0453 1.19601 12.0875 1.22276 12.1289 1.25488C12.2126 1.31977 12.291 1.40567 12.3877 1.54297C12.5798 1.81593 12.8517 2.30429 13.3867 3.2666L13.8018 4.01367L13.8613 3.98242L14.0059 3.91992C14.1652 3.8635 14.3652 3.82633 14.5693 3.80957C14.8421 3.7872 15.13 3.80109 15.3506 3.85938L15.5068 3.90527C15.8633 4.02555 16.1696 4.22429 16.4453 4.5127L16.5605 4.64062C16.8164 4.94097 16.984 5.26415 17.0762 5.63281L17.1074 5.79492C17.1323 5.96788 17.1389 6.17009 17.1289 6.36914C17.1189 6.56809 17.0917 6.76699 17.0498 6.93359L17.0029 7.08789C16.8805 7.41942 16.7198 7.68428 16.4834 7.94043L16.3779 8.0498L16.1602 8.26367L16.8193 9.45508L17.1104 9.9873C17.1968 10.1488 17.2722 10.2937 17.3359 10.4189C17.4621 10.6668 17.5435 10.8437 17.5654 10.9229L17.5957 11.0615C17.6495 11.387 17.5879 11.7324 17.4434 12.0332C17.2986 12.3342 17.0693 12.5946 16.7852 12.7461L16.6602 12.8037C16.4165 12.9008 16.162 12.9285 15.5459 12.8975L14.7959 12.8467C13.7793 12.7689 12.8234 12.7486 12.2227 12.7871L11.9873 12.8066C11.6607 12.8436 11.2605 12.9261 10.8955 13.0254C10.6208 13.1001 10.3684 13.1836 10.1836 13.2627L10.0234 13.3398L9.95117 13.3799L10.7627 14.8398L11.2881 15.7969C11.4201 16.0449 11.5138 16.2309 11.5791 16.3818C11.7114 16.6879 11.731 16.8527 11.7324 17.0908L11.7246 17.292C11.6915 17.6879 11.552 18.0434 11.3086 18.3496L11.1777 18.499C10.5081 19.1966 9.43431 19.2308 8.71387 18.6094L8.5752 18.4756C8.43436 18.3265 8.30248 18.1328 8.02246 17.6396L7.68652 17.0361L6.85156 15.5283L6.69141 15.2451L6.44824 15.3262C5.67546 15.5813 4.7722 15.5205 4.00586 15.1689L3.85449 15.0947C3.03253 14.6652 2.38527 13.8662 2.09375 12.9355L2.04004 12.748C1.98019 12.5151 1.95078 12.201 1.9502 11.8867C1.94963 11.5725 1.97832 11.2536 2.03711 11.0098L2.12695 10.7021C2.23632 10.3809 2.39566 10.0353 2.54297 9.81055L2.70605 9.59375C2.77116 9.51427 2.84492 9.42992 2.91992 9.34863C3.0698 9.18621 3.22811 9.03106 3.33984 8.94629L3.84961 8.62109C4.1188 8.45432 4.46734 8.24208 4.8291 8.02441L5.83984 7.40723C6.12851 7.22831 6.3463 7.09005 6.42285 7.03613L6.56934 6.91992C6.74506 6.77029 6.9952 6.53329 7.2041 6.31543L7.48242 6.01562C8.08974 5.33402 8.43631 4.72449 9.2627 2.98633L9.74414 2.00391C9.81212 1.87028 9.87145 1.75634 9.91797 1.6709C9.96321 1.58781 9.99868 1.52658 10.0186 1.50195L10.0859 1.42578C10.2529 1.25052 10.4862 1.09901 10.7148 1.02051L10.8477 0.983398ZM8.96387 13.9375C8.92175 13.9585 8.86384 13.9904 8.7959 14.0293C8.66028 14.1069 8.48526 14.2129 8.3125 14.3213C8.13965 14.4297 7.96973 14.5405 7.84375 14.627C7.78068 14.6702 7.72925 14.7071 7.69434 14.7344C7.68311 14.7432 7.67398 14.7507 7.66699 14.7568C7.66831 14.7595 7.66936 14.7626 7.6709 14.7656C7.68155 14.7869 7.69722 14.8164 7.7168 14.8535C7.75598 14.9278 7.81205 15.0311 7.87891 15.1543C8.01258 15.4007 8.19108 15.7268 8.375 16.0596C8.74327 16.7258 9.13101 17.417 9.21875 17.5576L9.29102 17.6572C9.67796 18.1157 10.4252 17.9926 10.6289 17.3926L10.666 17.2617C10.6747 17.2215 10.6792 17.1842 10.6807 17.1475C10.6821 17.1109 10.6802 17.0743 10.6748 17.0352L10.6484 16.9092C10.6472 16.9047 10.6414 16.8893 10.6279 16.8604C10.6151 16.8329 10.5966 16.7964 10.5742 16.752C10.5293 16.6628 10.4666 16.5415 10.3906 16.3984L9.81445 15.3398C9.59406 14.9432 9.38968 14.5814 9.23828 14.3184C9.16259 14.1868 9.10023 14.0799 9.05566 14.0059C9.03351 13.969 9.01539 13.9411 9.00293 13.9219L9.00195 13.9199C8.99182 13.9243 8.97903 13.93 8.96387 13.9375ZM6.01074 8.61133C5.95605 8.63924 5.8785 8.68162 5.78516 8.73438C5.59848 8.83989 5.34921 8.98644 5.09277 9.14062C4.83637 9.2948 4.57243 9.45714 4.35645 9.59375C4.24809 9.66229 4.15271 9.72439 4.07617 9.77539L3.90918 9.89258C3.03663 10.595 2.7568 11.9387 3.26758 12.9941L3.38672 13.2129C4.03122 14.2649 5.36015 14.6837 6.44629 14.1416L6.89746 13.8896C7.10972 13.7671 7.36658 13.6153 7.61719 13.4648L8.48535 12.9434L7.28613 10.7832C6.94962 10.1774 6.64027 9.62288 6.41406 9.21875C6.30107 9.01689 6.20852 8.85221 6.14355 8.7373C6.1111 8.67991 6.08522 8.63452 6.06738 8.60352C6.06412 8.59785 6.06131 8.59257 6.05859 8.58789C6.04601 8.59365 6.02991 8.60155 6.01074 8.61133ZM11.5254 2.18945C11.397 2.05031 11.1689 2.01395 10.9814 2.09766L10.9043 2.14062C10.907 2.13876 10.9059 2.13803 10.9014 2.14355C10.8975 2.14827 10.8923 2.15544 10.8857 2.16504C10.8728 2.18417 10.8565 2.21167 10.8359 2.24707C10.7949 2.31787 10.74 2.4194 10.6729 2.54883C10.6058 2.67806 10.5268 2.83517 10.4365 3.01758L10.1328 3.63965C9.49838 4.95819 9.21578 5.49166 8.83594 6.04688L8.66602 6.28809C8.36659 6.70356 7.78619 7.32281 7.38379 7.66602L7.22363 7.79492C7.14489 7.85351 7.07421 7.90939 7.02441 7.95215C7.0014 7.97191 6.98389 7.98876 6.97168 8.00098C6.975 8.00715 6.97896 8.01428 6.9834 8.02246C7.00039 8.05379 7.02578 8.09925 7.05762 8.15723C7.12132 8.27322 7.21246 8.43971 7.3252 8.64355C7.55081 9.05149 7.86103 9.61094 8.20117 10.2227L9.41602 12.4062L9.61914 12.3125L9.88477 12.1973C10.5255 11.9393 11.3074 11.7563 12.082 11.6855L12.3311 11.6689C12.9739 11.6391 14.0211 11.6696 14.9277 11.7471L15.5352 11.792C15.7019 11.8016 15.8358 11.8059 15.9443 11.8047C16.1634 11.8022 16.2699 11.7767 16.332 11.7373L16.4004 11.6826C16.5262 11.5597 16.5761 11.3619 16.5234 11.1768L16.4893 11.0859C16.3727 10.8486 15.1505 8.64469 13.9463 6.4873C13.3446 5.40931 12.7474 4.34371 12.2959 3.54199C12.0702 3.14118 11.8805 2.80661 11.7451 2.56934C11.6774 2.45067 11.6234 2.35584 11.585 2.29004C11.5659 2.25737 11.551 2.23179 11.54 2.21387C11.5347 2.20507 11.5304 2.1981 11.5273 2.19336L11.5254 2.18945ZM14.6387 4.90332C14.5409 4.90897 14.4572 4.92252 14.4014 4.94141C14.3732 4.95096 14.356 4.96039 14.3477 4.96777L14.3457 4.96875C14.3479 4.97361 14.3511 4.98043 14.3555 4.98926C14.3646 5.00766 14.3775 5.03389 14.3945 5.06641C14.4285 5.13137 14.4776 5.22192 14.5371 5.33203C14.6561 5.55228 14.8184 5.84961 14.9961 6.16992L15.6104 7.27637L15.7207 7.16602L15.7861 7.08887C15.8552 6.99908 15.9301 6.8774 15.9717 6.78223L16.0205 6.65039C16.2149 6.02673 15.9193 5.31049 15.3525 5.02441L15.2266 4.96973C15.0713 4.9128 14.8346 4.89203 14.6387 4.90332Z" fill="#424746" stroke="#424746" stroke-width="0.1"/>
</svg>
