<svg width="20" height="20" viewBox="0 0 20 20" fill="none" xmlns="http://www.w3.org/2000/svg">
<path d="M14.5824 8.64774C14.5824 8.14003 14.5743 7.76794 14.7196 7.43554C14.8661 7.10066 15.1435 6.86176 15.5094 6.53182L15.6567 6.39929L16.1984 5.90247C16.3469 5.76064 16.465 5.63834 16.5581 5.52424C16.7327 5.31021 16.785 5.16382 16.7859 5.01038C16.7868 4.84694 16.7389 4.70799 16.5929 4.51899C16.4326 4.31134 16.1831 4.07941 15.8016 3.72688C15.6942 3.6276 15.5895 3.53634 15.4908 3.45716C15.1407 3.17654 14.633 2.86054 14.2306 2.62475C13.948 2.45928 13.6125 2.41851 13.2881 2.50384L12.899 2.60614C12.6916 2.66073 12.5056 2.79607 12.3813 2.99212C11.2712 4.74386 8.80846 4.74453 7.69835 2.9929C7.57393 2.79656 7.38818 2.66076 7.18061 2.60614L6.79153 2.50384C6.46708 2.41851 6.13154 2.45929 5.84906 2.62475C5.44661 2.86053 4.9389 3.17654 4.58881 3.45716C4.49006 3.53632 4.38547 3.62758 4.27801 3.72688C3.89653 4.07941 3.64705 4.31135 3.48668 4.51899C3.34073 4.70797 3.2928 4.84693 3.29369 5.01038C3.29457 5.16382 3.34694 5.31021 3.52155 5.52424C3.70777 5.7525 3.99449 6.01292 4.42295 6.39929L4.57021 6.53182C4.93613 6.86178 5.2135 7.10066 5.36 7.43554C5.50531 7.76794 5.49718 8.14003 5.49718 8.64774V14.9722C5.49718 15.508 5.49844 15.8704 5.53826 16.155C5.57571 16.4224 5.6443 16.5929 5.7669 16.7463L5.86146 16.8517C6.08954 17.0741 6.38697 17.1417 7.16201 17.2842C7.92819 17.4252 8.90173 17.54 10.0398 17.54C11.1779 17.54 12.1514 17.4252 12.9176 17.2842C13.8032 17.1214 14.0651 17.0562 14.3127 16.7463C14.4353 16.5929 14.5039 16.4224 14.5414 16.155C14.5812 15.8703 14.5824 15.508 14.5824 14.9722V8.64774ZM15.3761 14.9722C15.3761 15.4863 15.3765 15.9124 15.3273 16.2642C15.2757 16.6332 15.1663 16.9492 14.9328 17.2416C14.4679 17.8234 13.878 17.9145 13.061 18.0647C12.2527 18.2134 11.2311 18.3337 10.0398 18.3337C8.84849 18.3337 7.82691 18.2134 7.01862 18.0647C6.20165 17.9145 5.61165 17.8234 5.14685 17.2416C4.91326 16.9492 4.80397 16.6332 4.75235 16.2642C4.70315 15.9124 4.70352 15.4863 4.70352 14.9722V8.64774C4.70352 8.07051 4.6961 7.89868 4.63299 7.75409C4.5709 7.61207 4.45585 7.4972 4.03852 7.12087L3.89203 6.98833C3.48228 6.61884 3.13986 6.31217 2.90616 6.02571C2.66099 5.7251 2.50229 5.40856 2.50003 5.01503C2.49786 4.63161 2.63401 4.32495 2.85888 4.0338C3.06937 3.7613 3.37767 3.47827 3.73935 3.14404C3.85698 3.03533 3.97623 2.93131 4.09277 2.83789C4.49083 2.51885 5.04068 2.17877 5.44758 1.94037C5.9225 1.66213 6.47724 1.60066 6.99382 1.73653L7.38213 1.83883C7.79043 1.94622 8.14097 2.20809 8.36878 2.56739C9.16721 3.82737 10.9124 3.82735 11.7108 2.56739C11.9387 2.20806 12.2892 1.94621 12.6975 1.83883L13.0866 1.73653C13.603 1.60075 14.1572 1.66143 14.632 1.93959C15.0389 2.17799 15.5888 2.51885 15.9868 2.83789C16.1033 2.93128 16.2226 3.03531 16.3403 3.14404C16.7019 3.47826 17.0102 3.7613 17.2207 4.0338C17.4456 4.32494 17.5818 4.63159 17.5796 5.01503C17.5773 5.40854 17.4186 5.7251 17.1735 6.02571C16.9398 6.31217 16.5974 6.61884 16.1876 6.98833L16.0411 7.12087C15.6237 7.49722 15.5087 7.61207 15.4466 7.75409C15.3835 7.89868 15.3761 8.07049 15.3761 8.64774V14.9722Z" fill="#424746" stroke="#24B094" stroke-width="0.5" stroke-linecap="round" stroke-linejoin="round"/>
</svg>
