<svg width="20" height="20" viewBox="0 0 20 20" fill="none" xmlns="http://www.w3.org/2000/svg">
<path d="M5.91504 1.56152H14.085C14.8541 1.56119 15.3186 1.56633 15.6836 1.6582L15.835 1.70312C16.4409 1.91401 16.9418 2.34529 17.2549 2.9043L17.2061 2.9209L17.3682 3.41602L17.5312 3.91016L17.5684 3.89746C17.5881 4.08936 17.5978 4.31076 17.6016 4.57812L17.6045 5.1875V16.9775C17.6045 17.7407 16.7829 18.152 16.2021 17.7627L16.0898 17.6738L15.9844 17.5947C15.7635 17.4582 15.4865 17.4582 15.2656 17.5947L15.1602 17.6738L14.7578 18.043C14.2192 18.5356 13.424 18.5659 12.8535 18.1348L12.7422 18.043C12.2783 17.6184 11.5949 17.5915 11.1035 17.9629L11.0078 18.043C10.4692 18.5356 9.67405 18.5659 9.10352 18.1348L8.99219 18.043C8.5283 17.6184 7.84489 17.5915 7.35352 17.9629L7.25781 18.043C6.71927 18.5356 5.92412 18.5659 5.35352 18.1348L5.24219 18.043L4.83984 17.6738L4.73438 17.5947C4.51353 17.4582 4.23647 17.4582 4.01562 17.5947L3.91016 17.6738C3.32991 18.2048 2.39551 17.7914 2.39551 16.9775V5.1875C2.39522 4.39167 2.40001 3.91352 2.48926 3.53809L2.5332 3.38281C2.77657 2.64199 3.32183 2.04964 4.02344 1.75781L4.16504 1.70312C4.45715 1.60148 4.80129 1.57238 5.32617 1.56445L5.91504 1.56152ZM6.03711 1.77051C5.5323 1.77051 5.17512 1.77247 4.91016 1.78711C4.70924 1.79821 4.54124 1.81738 4.38574 1.85547L4.2334 1.90039C3.57082 2.1311 3.04049 2.64797 2.7793 3.31348L2.73047 3.44824C2.6633 3.65289 2.63464 3.86914 2.62012 4.14648C2.60573 4.42137 2.60449 4.78973 2.60449 5.30762V16.9775C2.60449 17.248 2.73745 17.4669 2.93164 17.5918L3.01855 17.6396H3.01953C3.10808 17.6805 3.20397 17.7028 3.30078 17.7041L3.39844 17.6982C3.49459 17.6853 3.59112 17.6505 3.68164 17.5898L3.76953 17.5205C4.09289 17.2246 4.57143 17.2058 4.91406 17.4648L4.98047 17.5205L5.38281 17.8887C5.84668 18.3131 6.53014 18.34 7.02148 17.9688L7.11719 17.8887C7.6557 17.396 8.45087 17.3658 9.02148 17.7969L9.13281 17.8887C9.59668 18.3131 10.2801 18.34 10.7715 17.9688L10.8672 17.8887C11.4056 17.396 12.2008 17.3658 12.7715 17.7969L12.8828 17.8887C13.3467 18.3131 14.0301 18.34 14.5215 17.9688L14.6172 17.8887L15.0195 17.5205C15.3428 17.2246 15.8214 17.2058 16.1641 17.4648L16.2305 17.5205C16.3162 17.599 16.4102 17.6499 16.5059 17.6777L16.6016 17.6982C16.6985 17.7113 16.7967 17.7021 16.8896 17.6738L16.9805 17.6396H16.9814C17.2211 17.5286 17.3955 17.2872 17.3955 16.9775V5.30762C17.3955 4.78973 17.3943 4.42138 17.3799 4.14648C17.369 3.93834 17.3496 3.76468 17.3125 3.60449L17.2695 3.44824C17.0448 2.76374 16.5417 2.21844 15.8975 1.9502L15.7666 1.90039C15.5675 1.83112 15.3577 1.8019 15.0898 1.78711C14.8249 1.77248 14.4677 1.77051 13.9629 1.77051H6.03711ZM5.83301 11.9785H6.25C6.30752 11.9785 6.35449 12.0255 6.35449 12.083C6.35436 12.1404 6.30744 12.1865 6.25 12.1865H5.83301C5.77574 12.1863 5.72962 12.1403 5.72949 12.083C5.72949 12.0256 5.77566 11.9787 5.83301 11.9785ZM8.75 11.9785H14.167C14.2244 11.9786 14.2705 12.0256 14.2705 12.083C14.2704 12.1403 14.2243 12.1864 14.167 12.1865H8.75C8.69257 12.1865 8.64564 12.1404 8.64551 12.083C8.64551 12.0255 8.69249 11.9786 8.75 11.9785ZM5.83301 9.06152H6.25C6.30749 9.06152 6.35445 9.10853 6.35449 9.16602C6.35449 9.22354 6.30752 9.27051 6.25 9.27051H5.83301C5.77566 9.2703 5.72949 9.22341 5.72949 9.16602C5.72954 9.10865 5.77569 9.06173 5.83301 9.06152ZM8.75 9.06152H14.167C14.2244 9.06165 14.2705 9.10862 14.2705 9.16602C14.2705 9.22345 14.2244 9.27038 14.167 9.27051H8.75C8.69249 9.27046 8.64551 9.22348 8.64551 9.16602C8.64555 9.10859 8.69252 9.06157 8.75 9.06152ZM5.83301 6.14551H6.25C6.3074 6.14551 6.35428 6.19168 6.35449 6.24902C6.35449 6.30655 6.30753 6.35352 6.25 6.35352H5.83301C5.77565 6.35331 5.72949 6.30643 5.72949 6.24902C5.7297 6.1918 5.77579 6.14572 5.83301 6.14551ZM8.75 6.14551H14.167C14.2243 6.14564 14.2703 6.19176 14.2705 6.24902C14.2705 6.30647 14.2244 6.35339 14.167 6.35352H8.75C8.69248 6.35347 8.64551 6.30649 8.64551 6.24902C8.64572 6.19174 8.69262 6.14555 8.75 6.14551Z" fill="#424746" stroke="#424746" stroke-width="1.04167"/>
</svg>
