<svg width="24" height="24" viewBox="0 0 24 24" fill="none" xmlns="http://www.w3.org/2000/svg">
<path d="M20.6046 12C20.6046 10.665 20.6028 9.73385 20.5084 9.03125C20.4166 8.34867 20.2489 7.98692 19.9915 7.72947C19.734 7.47201 19.3723 7.30434 18.6897 7.21257C17.9871 7.11815 17.056 7.11628 15.7209 7.11628H8.27907C6.94404 7.11628 6.01293 7.11815 5.31032 7.21257C4.62774 7.30434 4.266 7.47201 4.00854 7.72947C3.75109 7.98692 3.58341 8.34867 3.49164 9.03125C3.39723 9.73386 3.39535 10.665 3.39535 12C3.39535 13.335 3.39722 14.2661 3.49164 14.9687C3.58341 15.6513 3.75108 16.0131 4.00854 16.2705C4.39048 16.6525 4.98409 16.8244 6.4395 16.8683L6.39771 18.2627C4.96307 18.2195 3.83315 18.0682 3.02199 17.2571C2.46207 16.6972 2.22068 15.9923 2.1081 15.155C1.99825 14.3378 2 13.2957 2 12C2 10.7043 1.99825 9.66223 2.1081 8.84502C2.22068 8.00771 2.46206 7.30284 3.02199 6.74291C3.58191 6.18299 4.28678 5.94161 5.12409 5.82903C5.94131 5.71918 6.98334 5.72093 8.27907 5.72093H15.7209C17.0167 5.72093 18.0587 5.71918 18.8759 5.82903C19.7132 5.94161 20.4181 6.183 20.978 6.74291C21.5379 7.30283 21.7793 8.00772 21.8919 8.84502C22.0017 9.66224 22 10.7043 22 12C22 13.2957 22.0018 14.3378 21.8919 15.155C21.7793 15.9923 21.5379 16.6972 20.978 17.2571C20.1668 18.0683 19.037 18.2195 17.6023 18.2627L17.5605 16.8683C19.016 16.8244 19.6095 16.6525 19.9915 16.2705C20.2489 16.0131 20.4166 15.6513 20.5084 14.9687C20.6028 14.2661 20.6046 13.335 20.6046 12ZM9.2093 9.44186C9.59462 9.44186 9.90698 9.75422 9.90698 10.1395C9.90698 10.5248 9.59462 10.8372 9.2093 10.8372H6.41861C6.03329 10.8372 5.72093 10.5248 5.72093 10.1395C5.72093 9.75422 6.03329 9.44186 6.41861 9.44186H9.2093Z" fill="#424746"/>
<path d="M18.5116 14.093C18.8969 14.093 19.2093 14.4054 19.2093 14.7907C19.2093 15.176 18.8969 15.4884 18.5116 15.4884H5.48837C5.10306 15.4884 4.7907 15.176 4.7907 14.7907C4.7907 14.4054 5.10306 14.093 5.48837 14.093H18.5116Z" fill="#424746"/>
<path d="M7.72931 4.00838C7.98676 3.75093 8.34822 3.58307 9.03081 3.4913C9.73346 3.39683 10.6647 3.39535 12 3.39535C13.3353 3.39535 14.2665 3.39683 14.9692 3.4913C15.6518 3.58307 16.0132 3.75093 16.2707 4.00838C16.6526 4.39033 16.8241 4.98409 16.8679 6.43962L18.2626 6.39759C18.2194 4.96299 18.0686 3.8329 17.2574 3.02172C16.6974 2.4618 15.9925 2.22097 15.1552 2.10839C14.3486 1.99997 13.3231 1.99998 12.0509 2H11.9491C10.6769 1.99998 9.65139 1.99997 8.84488 2.10839C8.00757 2.22097 7.30258 2.4618 6.74265 3.02172C5.93147 3.8329 5.78059 4.96299 5.73736 6.39759L7.13208 6.43962C7.17594 4.98409 7.34737 4.39033 7.72931 4.00838Z" fill="#424746"/>
<path fill-rule="evenodd" clip-rule="evenodd" d="M18.2791 14.7907C18.2791 14.4054 17.9667 14.093 17.5814 14.093C17.1961 14.093 16.8837 14.4054 16.8837 14.7907V15.7209C16.8837 17.0562 16.8822 17.9874 16.7878 18.6901C16.696 19.3727 16.5282 19.7341 16.2707 19.9916C16.0132 20.2491 15.6518 20.4169 14.9692 20.5087C14.2665 20.6032 13.3353 20.6046 12 20.6046C10.6647 20.6046 9.73346 20.6032 9.03081 20.5087C8.34823 20.4169 7.98676 20.2491 7.72931 19.9916C7.47186 19.7341 7.304 19.3727 7.21223 18.6901C7.11776 17.9874 7.11628 17.0562 7.11628 15.7209V14.7907C7.11628 14.4054 6.80392 14.093 6.41861 14.093C6.03329 14.093 5.72093 14.4054 5.72093 14.7907V15.7719C5.72091 17.0441 5.7209 18.0695 5.82932 18.8761C5.9419 19.7134 6.18273 20.4183 6.74265 20.9783C7.30258 21.5382 8.00757 21.7791 8.84488 21.8916C9.65132 22 10.6767 22 11.9488 22H12.0512C13.3233 22 14.3487 22 15.1552 21.8916C15.9925 21.7791 16.6974 21.5382 17.2574 20.9783C17.8173 20.4183 18.0581 19.7134 18.1707 18.8761C18.2791 18.0696 18.2791 17.0443 18.2791 15.7722V14.7907Z" fill="#424746"/>
<path d="M16.6512 11.0698C17.1649 11.0698 17.5814 10.6533 17.5814 10.1395C17.5814 9.62578 17.1649 9.2093 16.6512 9.2093C16.1374 9.2093 15.7209 9.62578 15.7209 10.1395C15.7209 10.6533 16.1374 11.0698 16.6512 11.0698Z" fill="#424746"/>
</svg>
