<svg width="32" height="32" viewBox="0 0 32 32" fill="none" xmlns="http://www.w3.org/2000/svg">
<path fill-rule="evenodd" clip-rule="evenodd" d="M21.6667 8.33333H11C7.22876 8.33333 5.34315 8.33333 4.17157 9.50491C3 10.6765 3 12.5621 3 16.3333C3 20.1045 3 21.9901 4.17157 23.1617C4.83097 23.8212 5.71657 24.1095 7.03727 24.2355C6.99997 23.2717 6.99999 22.1363 7 21C6.63181 21 6.33333 20.7015 6.33333 20.3333C6.33333 19.9652 6.63181 19.6667 7 19.6667H25.6667C26.0348 19.6667 26.3333 19.9652 26.3333 20.3333C26.3333 20.7015 26.0348 21.0004 25.6667 21.0004C25.6667 22.1367 25.6667 23.2719 25.6295 24.2355C26.9501 24.1095 27.8357 23.8212 28.4951 23.1617C29.6667 21.9901 29.6667 20.1045 29.6667 16.3333C29.6667 12.5621 29.6667 10.6765 28.4951 9.50491C27.3235 8.33333 25.4379 8.33333 21.6667 8.33333ZM12.3333 14.6667C12.8856 14.6667 13.3333 14.2189 13.3333 13.6667C13.3333 13.1144 12.8856 12.6667 12.3333 12.6667H8.33333C7.78105 12.6667 7.33333 13.1144 7.33333 13.6667C7.33333 14.2189 7.78105 14.6667 8.33333 14.6667H12.3333ZM23 15C23.7364 15 24.3333 14.4031 24.3333 13.6667C24.3333 12.9303 23.7364 12.3333 23 12.3333C22.2636 12.3333 21.6667 12.9303 21.6667 13.6667C21.6667 14.4031 22.2636 15 23 15Z" fill="#24B094"/>
<path d="M23.1612 4.17157C21.9896 3 20.104 3 16.3328 3C12.5615 3 10.6759 3 9.50429 4.17157C8.84781 4.82807 8.55919 5.70876 8.43229 7.01979C9.17795 6.99995 10.0021 6.99997 10.9056 7H21.7605C22.6637 6.99997 23.4877 6.99995 24.2332 7.01977C24.1062 5.70875 23.8177 4.82807 23.1612 4.17157Z" fill="#24B094"/>
<path d="M24.3333 21C24.3333 24.7712 24.3333 27.3235 23.1617 28.4951C21.9901 29.6667 20.1045 29.6667 16.3333 29.6667C12.5621 29.6667 10.6765 29.6667 9.50491 28.4951C8.33333 27.3235 8.33333 24.7712 8.33333 21H24.3333Z" fill="#24B094"/>
</svg>
