<svg width="20" height="20" viewBox="0 0 20 20" fill="none" xmlns="http://www.w3.org/2000/svg">
<path d="M12.9815 2.81766L14.6482 3.69228C16.4412 4.63323 17.3377 5.10371 17.8356 5.94913C18.3334 6.79456 18.3334 7.84657 18.3334 9.9506V10.0481C18.3334 12.1521 18.3334 13.2042 17.8356 14.0496C17.3377 14.895 16.4412 15.3654 14.6482 16.3064L12.9815 17.181C11.5185 17.9488 10.787 18.3327 10.0001 18.3327C9.21316 18.3327 8.48166 17.9488 7.01866 17.181L5.35199 16.3064C3.55894 15.3654 2.66241 14.895 2.16458 14.0496C1.66675 13.2042 1.66675 12.1521 1.66675 10.0481V9.9506C1.66675 7.84657 1.66675 6.79456 2.16458 5.94913C2.66241 5.10371 3.55894 4.63323 5.35199 3.69228L7.01866 2.81766C8.48166 2.0499 9.21316 1.66602 10.0001 1.66602C10.787 1.66602 11.5185 2.0499 12.9815 2.81766Z" stroke="#424746" stroke-width="1.25" stroke-linecap="round"/>
<path d="M17.5 6.25L10 10M10 10L2.5 6.25M10 10V17.9167" stroke="#424746" stroke-width="1.25" stroke-linecap="round"/>
</svg>
