<svg width="20" height="20" viewBox="0 0 20 20" fill="none" xmlns="http://www.w3.org/2000/svg">
<path d="M7.49992 9.16732C8.42042 9.16732 9.16658 8.42115 9.16658 7.50065C9.16658 6.58018 8.42042 5.83398 7.49992 5.83398C6.57944 5.83398 5.83325 6.58018 5.83325 7.50065C5.83325 8.42115 6.57944 9.16732 7.49992 9.16732Z" stroke="#424746" stroke-width="1.04167"/>
<path d="M10.8334 12.5007C10.8334 13.4212 10.8334 14.1673 7.50008 14.1673C4.16675 14.1673 4.16675 13.4212 4.16675 12.5007C4.16675 11.5802 5.65913 10.834 7.50008 10.834C9.341 10.834 10.8334 11.5802 10.8334 12.5007Z" stroke="#424746" stroke-width="1.04167"/>
<path d="M1.66675 10.0007C1.66675 6.85795 1.66675 5.28661 2.64306 4.31029C3.61937 3.33398 5.19071 3.33398 8.33341 3.33398H11.6667C14.8094 3.33398 16.3808 3.33398 17.3571 4.31029C18.3334 5.28661 18.3334 6.85795 18.3334 10.0007C18.3334 13.1433 18.3334 14.7147 17.3571 15.691C16.3808 16.6673 14.8094 16.6673 11.6667 16.6673H8.33341C5.19071 16.6673 3.61937 16.6673 2.64306 15.691C1.66675 14.7147 1.66675 13.1433 1.66675 10.0007Z" stroke="#424746" stroke-width="1.04167"/>
<path d="M15.8333 10H12.5" stroke="#424746" stroke-width="1.04167" stroke-linecap="round"/>
<path d="M15.8334 7.5H11.6667" stroke="#424746" stroke-width="1.04167" stroke-linecap="round"/>
<path d="M15.8333 12.5H13.3333" stroke="#424746" stroke-width="1.04167" stroke-linecap="round"/>
</svg>
