<svg width="20" height="20" viewBox="0 0 20 20" fill="none" xmlns="http://www.w3.org/2000/svg">
<path d="M10 7.375C11.4498 7.375 12.625 8.55025 12.625 10C12.625 11.4498 11.4498 12.625 10 12.625C8.55026 12.625 7.375 11.4498 7.375 10C7.375 8.55025 8.55026 7.375 10 7.375ZM10 7.625C8.68836 7.625 7.625 8.68836 7.625 10C7.625 11.3116 8.68836 12.375 10 12.375C11.3116 12.375 12.375 11.3116 12.375 10C12.375 8.68836 11.3116 7.625 10 7.625Z" fill="#424746" stroke="#424746"/>
<mask id="path-2-inside-1_4418_36697" fill="white">
<path fill-rule="evenodd" clip-rule="evenodd" d="M9.97884 1.04199C9.6085 1.04198 9.29925 1.04198 9.04542 1.0593C8.78117 1.07733 8.53159 1.1162 8.28959 1.21643C7.72808 1.44903 7.28194 1.89515 7.04935 2.45668C6.92827 2.74901 6.89548 3.05709 6.88295 3.39196C6.87289 3.66115 6.73704 3.88575 6.53654 4.0015C6.33606 4.11725 6.07363 4.1226 5.83547 3.99673C5.5392 3.84013 5.25599 3.71448 4.94228 3.67318C4.33969 3.59385 3.73027 3.75715 3.24808 4.12715C3.04028 4.2866 2.88181 4.48333 2.73408 4.70316C2.59215 4.91433 2.43756 5.18212 2.25237 5.50288L2.23133 5.53933C2.04613 5.86009 1.89153 6.12786 1.7796 6.35635C1.66309 6.59422 1.57195 6.82982 1.53776 7.0895C1.45843 7.69209 1.62173 8.30151 1.99172 8.78374C2.18432 9.03466 2.43469 9.21716 2.71839 9.39541C2.94654 9.53874 3.07315 9.76874 3.07314 10.0003C3.07313 10.2318 2.94652 10.4618 2.71839 10.6052C2.43466 10.7834 2.18426 10.9659 1.99164 11.2169C1.62164 11.6991 1.45835 12.3085 1.53768 12.9111C1.57187 13.1707 1.66301 13.4064 1.77952 13.6442C1.89144 13.8727 2.04604 14.1405 2.23124 14.4612L2.25229 14.4977C2.43748 14.8185 2.59207 15.0862 2.73399 15.2974C2.88173 15.5172 3.04019 15.714 3.24799 15.8734C3.73019 16.2434 4.33961 16.4067 4.94219 16.3274C5.25589 16.2861 5.53909 16.1605 5.83534 16.0039C6.07353 15.878 6.33599 15.8833 6.5365 15.9992C6.73702 16.1149 6.87289 16.3395 6.88295 16.6087C6.89548 16.9436 6.92828 17.2517 7.04935 17.544C7.28194 18.1055 7.72808 18.5517 8.28959 18.7842C8.53159 18.8845 8.78117 18.9233 9.04542 18.9413C9.29925 18.9587 9.6085 18.9587 9.97884 18.9587H10.0209C10.3913 18.9587 10.7005 18.9587 10.9544 18.9413C11.2187 18.9233 11.4683 18.8845 11.7103 18.7842C12.2718 18.5517 12.7179 18.1055 12.9505 17.544C13.0716 17.2517 13.1043 16.9436 13.1168 16.6087C13.1269 16.3395 13.2628 16.1149 13.4633 15.9991C13.6638 15.8833 13.9263 15.878 14.1644 16.0038C14.4607 16.1604 14.7438 16.2861 15.0576 16.3273C15.6602 16.4067 16.2696 16.2434 16.7518 15.8734C16.9596 15.7139 17.118 15.5172 17.2658 15.2974C17.4077 15.0862 17.5623 14.8185 17.7474 14.4977L17.7685 14.4612C17.9537 14.1405 18.1083 13.8727 18.2203 13.6442C18.3368 13.4063 18.4278 13.1707 18.4621 12.9111C18.5414 12.3084 18.3781 11.699 18.0081 11.2168C17.8155 10.9658 17.5651 10.7834 17.2814 10.6052C17.0533 10.4618 16.9267 10.2318 16.9267 10.0002C16.9267 9.76874 17.0533 9.53883 17.2813 9.39549C17.5652 9.21724 17.8156 9.03483 18.0082 8.78374C18.3782 8.30157 18.5415 7.69215 18.4622 7.08956C18.4279 6.82988 18.3368 6.59428 18.2203 6.35641C18.1084 6.12793 17.9538 5.86018 17.7686 5.53945L17.7476 5.50298C17.5623 5.1822 17.4078 4.91439 17.2658 4.70322C17.1181 4.48338 16.9597 4.28666 16.7518 4.1272C16.2697 3.75721 15.6603 3.59391 15.0576 3.67324C14.7439 3.71454 14.4608 3.84018 14.1645 3.99676C13.9263 4.12265 13.6638 4.11729 13.4633 4.00153C13.2628 3.88577 13.1269 3.66113 13.1168 3.39192C13.1043 3.05706 13.0716 2.74899 12.9505 2.45668C12.7179 1.89515 12.2718 1.44903 11.7103 1.21643C11.4683 1.1162 11.2187 1.07733 10.9544 1.0593C10.7005 1.04198 10.3913 1.04198 10.0209 1.04199H9.97884ZM8.76792 2.37128C8.83225 2.34465 8.92992 2.32009 9.1305 2.3064C9.33675 2.29233 9.60309 2.29199 9.99992 2.29199C10.3968 2.29199 10.6631 2.29233 10.8693 2.3064C11.0699 2.32009 11.1676 2.34465 11.2318 2.37128C11.4871 2.47701 11.6899 2.67979 11.7956 2.93503C11.829 3.01554 11.8566 3.14105 11.8678 3.43863C11.8924 4.09895 12.2333 4.73473 12.8383 5.08406C13.4433 5.43339 14.1644 5.41066 14.7486 5.10189C15.0118 4.96274 15.1344 4.92393 15.2208 4.91255C15.4947 4.87649 15.7717 4.95072 15.9908 5.11889C16.0461 5.16126 16.1162 5.23357 16.2283 5.40046C16.3437 5.57202 16.4771 5.80249 16.6755 6.14616C16.8739 6.48983 17.0068 6.72064 17.0978 6.90627C17.1862 7.08684 17.2138 7.18372 17.2228 7.25272C17.2589 7.52662 17.1847 7.80363 17.0165 8.02281C16.9634 8.09195 16.8686 8.17865 16.6163 8.33708C16.0569 8.68866 15.6768 9.30166 15.6767 10.0002C15.6767 10.6989 16.0568 11.312 16.6163 11.6636C16.8685 11.822 16.9633 11.9087 17.0164 11.9778C17.1846 12.197 17.2588 12.474 17.2228 12.7479C17.2137 12.8169 17.1861 12.9137 17.0977 13.0943C17.0068 13.2799 16.8738 13.5107 16.6754 13.8544C16.477 14.1981 16.3436 14.4286 16.2283 14.6002C16.1161 14.767 16.046 14.8393 15.9908 14.8817C15.7716 15.0499 15.4946 15.1241 15.2207 15.0881C15.1343 15.0767 15.0118 15.0378 14.7485 14.8987C14.1643 14.5899 13.4433 14.5672 12.8382 14.9166C12.2333 15.2659 11.8924 15.9017 11.8678 16.562C11.8566 16.8596 11.829 16.9851 11.7956 17.0657C11.6899 17.3208 11.4871 17.5237 11.2318 17.6294C11.1676 17.656 11.0699 17.6806 10.8693 17.6942C10.6631 17.7083 10.3968 17.7087 9.99992 17.7087C9.60309 17.7087 9.33675 17.7083 9.1305 17.6942C8.92992 17.6806 8.83225 17.656 8.76792 17.6294C8.51275 17.5237 8.30993 17.3208 8.2042 17.0657C8.17085 16.9851 8.14321 16.8596 8.13208 16.562C8.10739 15.9017 7.76656 15.2659 7.1615 14.9166C6.55645 14.5672 5.83544 14.59 5.25124 14.8987C4.98796 15.0379 4.86544 15.0767 4.77904 15.0881C4.50514 15.1242 4.22813 15.0499 4.00895 14.8817C3.95374 14.8394 3.88363 14.7671 3.77147 14.6002C3.65618 14.4287 3.52272 14.1982 3.3243 13.8545C3.12588 13.5108 2.99301 13.28 2.90209 13.0944C2.81364 12.9138 2.78607 12.8169 2.77699 12.7479C2.74093 12.474 2.81515 12.197 2.98334 11.9778C3.03639 11.9087 3.13126 11.822 3.38342 11.6636C3.9429 11.3121 4.3231 10.699 4.32314 10.0004C4.32318 9.30166 3.94296 8.68858 3.38343 8.33699C3.13133 8.17857 3.03646 8.09188 2.98341 8.02275C2.81524 7.80358 2.74101 7.52657 2.77707 7.25266C2.78615 7.18367 2.81372 7.08678 2.90217 6.90622C2.99309 6.72058 3.12596 6.48978 3.32438 6.1461C3.5228 5.80243 3.65625 5.57196 3.77155 5.4004C3.88371 5.23352 3.95382 5.1612 4.00903 5.11884C4.22821 4.95066 4.50522 4.87643 4.77912 4.91249C4.86553 4.92387 4.98805 4.96268 5.25136 5.10186C5.83553 5.41062 6.55651 5.43334 7.16154 5.08403C7.76657 4.73473 8.10739 4.09897 8.13208 3.43868C8.14321 3.14107 8.17085 3.01555 8.2042 2.93503C8.30993 2.67979 8.51275 2.47701 8.76792 2.37128Z"/>
</mask>
<path fill-rule="evenodd" clip-rule="evenodd" d="M9.97884 1.04199C9.6085 1.04198 9.29925 1.04198 9.04542 1.0593C8.78117 1.07733 8.53159 1.1162 8.28959 1.21643C7.72808 1.44903 7.28194 1.89515 7.04935 2.45668C6.92827 2.74901 6.89548 3.05709 6.88295 3.39196C6.87289 3.66115 6.73704 3.88575 6.53654 4.0015C6.33606 4.11725 6.07363 4.1226 5.83547 3.99673C5.5392 3.84013 5.25599 3.71448 4.94228 3.67318C4.33969 3.59385 3.73027 3.75715 3.24808 4.12715C3.04028 4.2866 2.88181 4.48333 2.73408 4.70316C2.59215 4.91433 2.43756 5.18212 2.25237 5.50288L2.23133 5.53933C2.04613 5.86009 1.89153 6.12786 1.7796 6.35635C1.66309 6.59422 1.57195 6.82982 1.53776 7.0895C1.45843 7.69209 1.62173 8.30151 1.99172 8.78374C2.18432 9.03466 2.43469 9.21716 2.71839 9.39541C2.94654 9.53874 3.07315 9.76874 3.07314 10.0003C3.07313 10.2318 2.94652 10.4618 2.71839 10.6052C2.43466 10.7834 2.18426 10.9659 1.99164 11.2169C1.62164 11.6991 1.45835 12.3085 1.53768 12.9111C1.57187 13.1707 1.66301 13.4064 1.77952 13.6442C1.89144 13.8727 2.04604 14.1405 2.23124 14.4612L2.25229 14.4977C2.43748 14.8185 2.59207 15.0862 2.73399 15.2974C2.88173 15.5172 3.04019 15.714 3.24799 15.8734C3.73019 16.2434 4.33961 16.4067 4.94219 16.3274C5.25589 16.2861 5.53909 16.1605 5.83534 16.0039C6.07353 15.878 6.33599 15.8833 6.5365 15.9992C6.73702 16.1149 6.87289 16.3395 6.88295 16.6087C6.89548 16.9436 6.92828 17.2517 7.04935 17.544C7.28194 18.1055 7.72808 18.5517 8.28959 18.7842C8.53159 18.8845 8.78117 18.9233 9.04542 18.9413C9.29925 18.9587 9.6085 18.9587 9.97884 18.9587H10.0209C10.3913 18.9587 10.7005 18.9587 10.9544 18.9413C11.2187 18.9233 11.4683 18.8845 11.7103 18.7842C12.2718 18.5517 12.7179 18.1055 12.9505 17.544C13.0716 17.2517 13.1043 16.9436 13.1168 16.6087C13.1269 16.3395 13.2628 16.1149 13.4633 15.9991C13.6638 15.8833 13.9263 15.878 14.1644 16.0038C14.4607 16.1604 14.7438 16.2861 15.0576 16.3273C15.6602 16.4067 16.2696 16.2434 16.7518 15.8734C16.9596 15.7139 17.118 15.5172 17.2658 15.2974C17.4077 15.0862 17.5623 14.8185 17.7474 14.4977L17.7685 14.4612C17.9537 14.1405 18.1083 13.8727 18.2203 13.6442C18.3368 13.4063 18.4278 13.1707 18.4621 12.9111C18.5414 12.3084 18.3781 11.699 18.0081 11.2168C17.8155 10.9658 17.5651 10.7834 17.2814 10.6052C17.0533 10.4618 16.9267 10.2318 16.9267 10.0002C16.9267 9.76874 17.0533 9.53883 17.2813 9.39549C17.5652 9.21724 17.8156 9.03483 18.0082 8.78374C18.3782 8.30157 18.5415 7.69215 18.4622 7.08956C18.4279 6.82988 18.3368 6.59428 18.2203 6.35641C18.1084 6.12793 17.9538 5.86018 17.7686 5.53945L17.7476 5.50298C17.5623 5.1822 17.4078 4.91439 17.2658 4.70322C17.1181 4.48338 16.9597 4.28666 16.7518 4.1272C16.2697 3.75721 15.6603 3.59391 15.0576 3.67324C14.7439 3.71454 14.4608 3.84018 14.1645 3.99676C13.9263 4.12265 13.6638 4.11729 13.4633 4.00153C13.2628 3.88577 13.1269 3.66113 13.1168 3.39192C13.1043 3.05706 13.0716 2.74899 12.9505 2.45668C12.7179 1.89515 12.2718 1.44903 11.7103 1.21643C11.4683 1.1162 11.2187 1.07733 10.9544 1.0593C10.7005 1.04198 10.3913 1.04198 10.0209 1.04199H9.97884ZM8.76792 2.37128C8.83225 2.34465 8.92992 2.32009 9.1305 2.3064C9.33675 2.29233 9.60309 2.29199 9.99992 2.29199C10.3968 2.29199 10.6631 2.29233 10.8693 2.3064C11.0699 2.32009 11.1676 2.34465 11.2318 2.37128C11.4871 2.47701 11.6899 2.67979 11.7956 2.93503C11.829 3.01554 11.8566 3.14105 11.8678 3.43863C11.8924 4.09895 12.2333 4.73473 12.8383 5.08406C13.4433 5.43339 14.1644 5.41066 14.7486 5.10189C15.0118 4.96274 15.1344 4.92393 15.2208 4.91255C15.4947 4.87649 15.7717 4.95072 15.9908 5.11889C16.0461 5.16126 16.1162 5.23357 16.2283 5.40046C16.3437 5.57202 16.4771 5.80249 16.6755 6.14616C16.8739 6.48983 17.0068 6.72064 17.0978 6.90627C17.1862 7.08684 17.2138 7.18372 17.2228 7.25272C17.2589 7.52662 17.1847 7.80363 17.0165 8.02281C16.9634 8.09195 16.8686 8.17865 16.6163 8.33708C16.0569 8.68866 15.6768 9.30166 15.6767 10.0002C15.6767 10.6989 16.0568 11.312 16.6163 11.6636C16.8685 11.822 16.9633 11.9087 17.0164 11.9778C17.1846 12.197 17.2588 12.474 17.2228 12.7479C17.2137 12.8169 17.1861 12.9137 17.0977 13.0943C17.0068 13.2799 16.8738 13.5107 16.6754 13.8544C16.477 14.1981 16.3436 14.4286 16.2283 14.6002C16.1161 14.767 16.046 14.8393 15.9908 14.8817C15.7716 15.0499 15.4946 15.1241 15.2207 15.0881C15.1343 15.0767 15.0118 15.0378 14.7485 14.8987C14.1643 14.5899 13.4433 14.5672 12.8382 14.9166C12.2333 15.2659 11.8924 15.9017 11.8678 16.562C11.8566 16.8596 11.829 16.9851 11.7956 17.0657C11.6899 17.3208 11.4871 17.5237 11.2318 17.6294C11.1676 17.656 11.0699 17.6806 10.8693 17.6942C10.6631 17.7083 10.3968 17.7087 9.99992 17.7087C9.60309 17.7087 9.33675 17.7083 9.1305 17.6942C8.92992 17.6806 8.83225 17.656 8.76792 17.6294C8.51275 17.5237 8.30993 17.3208 8.2042 17.0657C8.17085 16.9851 8.14321 16.8596 8.13208 16.562C8.10739 15.9017 7.76656 15.2659 7.1615 14.9166C6.55645 14.5672 5.83544 14.59 5.25124 14.8987C4.98796 15.0379 4.86544 15.0767 4.77904 15.0881C4.50514 15.1242 4.22813 15.0499 4.00895 14.8817C3.95374 14.8394 3.88363 14.7671 3.77147 14.6002C3.65618 14.4287 3.52272 14.1982 3.3243 13.8545C3.12588 13.5108 2.99301 13.28 2.90209 13.0944C2.81364 12.9138 2.78607 12.8169 2.77699 12.7479C2.74093 12.474 2.81515 12.197 2.98334 11.9778C3.03639 11.9087 3.13126 11.822 3.38342 11.6636C3.9429 11.3121 4.3231 10.699 4.32314 10.0004C4.32318 9.30166 3.94296 8.68858 3.38343 8.33699C3.13133 8.17857 3.03646 8.09188 2.98341 8.02275C2.81524 7.80358 2.74101 7.52657 2.77707 7.25266C2.78615 7.18367 2.81372 7.08678 2.90217 6.90622C2.99309 6.72058 3.12596 6.48978 3.32438 6.1461C3.5228 5.80243 3.65625 5.57196 3.77155 5.4004C3.88371 5.23352 3.95382 5.1612 4.00903 5.11884C4.22821 4.95066 4.50522 4.87643 4.77912 4.91249C4.86553 4.92387 4.98805 4.96268 5.25136 5.10186C5.83553 5.41062 6.55651 5.43334 7.16154 5.08403C7.76657 4.73473 8.10739 4.09897 8.13208 3.43868C8.14321 3.14107 8.17085 3.01555 8.2042 2.93503C8.30993 2.67979 8.51275 2.47701 8.76792 2.37128Z" fill="#424746" stroke="#424746" stroke-width="2" mask="url(#path-2-inside-1_4418_36697)"/>
</svg>
