<svg width="20" height="20" viewBox="0 0 20 20" fill="none" xmlns="http://www.w3.org/2000/svg">
<path d="M10 8.56061C11.6736 8.56061 13.0303 7.20389 13.0303 5.5303C13.0303 3.85671 11.6736 2.5 10 2.5C8.32644 2.5 6.96973 3.85671 6.96973 5.5303C6.96973 7.20389 8.32644 8.56061 10 8.56061Z" stroke="#424746" stroke-width="1.25"/>
<path d="M14.5457 7.8035C15.8009 7.8035 16.8184 6.95556 16.8184 5.90956C16.8184 4.86357 15.8009 4.01562 14.5457 4.01562" stroke="#424746" stroke-width="1.25" stroke-linecap="round"/>
<path d="M5.45461 7.8035C4.19942 7.8035 3.18188 6.95556 3.18188 5.90956C3.18188 4.86357 4.19942 4.01562 5.45461 4.01562" stroke="#424746" stroke-width="1.25" stroke-linecap="round"/>
<path d="M10 16.8946C12.5104 16.8946 14.5455 15.5379 14.5455 13.8643C14.5455 12.1907 12.5104 10.834 10 10.834C7.48966 10.834 5.45459 12.1907 5.45459 13.8643C5.45459 15.5379 7.48966 16.8946 10 16.8946Z" stroke="#424746" stroke-width="1.25"/>
<path d="M16.0608 15.3797C17.3897 15.0882 18.3335 14.3502 18.3335 13.4857C18.3335 12.6213 17.3897 11.8832 16.0608 11.5918" stroke="#424746" stroke-width="1.25" stroke-linecap="round"/>
<path d="M3.93948 15.3797C2.6105 15.0882 1.66675 14.3502 1.66675 13.4857C1.66675 12.6213 2.6105 11.8832 3.93948 11.5918" stroke="#424746" stroke-width="1.25" stroke-linecap="round"/>
</svg>
