<svg width="20" height="20" viewBox="0 0 20 20" fill="none" xmlns="http://www.w3.org/2000/svg">
<rect width="20" height="20" rx="8" fill="#DFC2E3"/>
<path d="M13.2494 7.9375H12.625V7.375C12.625 7.07663 12.5065 6.79048 12.2955 6.5795C12.0845 6.36853 11.7984 6.25 11.5 6.25H5.5C5.20163 6.25 4.91548 6.36853 4.7045 6.5795C4.49353 6.79048 4.375 7.07663 4.375 7.375V11.875C4.375 12.1734 4.49353 12.4595 4.7045 12.6705C4.91548 12.8815 5.20163 13 5.5 13H6.0025C5.90723 13.2001 5.86416 13.421 5.87731 13.6422C5.89046 13.8634 5.9594 14.0777 6.0777 14.265C6.19601 14.4524 6.35982 14.6067 6.55387 14.7137C6.74793 14.8207 6.96591 14.8768 7.1875 14.8768C7.40909 14.8768 7.62707 14.8207 7.82113 14.7137C8.01518 14.6067 8.17899 14.4524 8.2973 14.265C8.4156 14.0777 8.48454 13.8634 8.49769 13.6422C8.51084 13.421 8.46777 13.2001 8.3725 13H11.065C10.9697 13.2001 10.9267 13.421 10.9398 13.6422C10.953 13.8634 11.0219 14.0777 11.1402 14.265C11.2585 14.4524 11.4223 14.6067 11.6164 14.7137C11.8104 14.8207 12.0284 14.8768 12.25 14.8768C12.4716 14.8768 12.6896 14.8207 12.8836 14.7137C13.0777 14.6067 13.2415 14.4524 13.3598 14.265C13.4781 14.0777 13.547 13.8634 13.5602 13.6422C13.5733 13.421 13.5303 13.2001 13.435 13H14.5C14.7984 13 15.0845 12.8815 15.2955 12.6705C15.5065 12.4595 15.625 12.1734 15.625 11.875V10.1875C15.625 8.94625 14.56 7.9375 13.2494 7.9375ZM5.125 11.875V7.375C5.125 7.27554 5.16451 7.18016 5.23483 7.10984C5.30516 7.03951 5.40054 7 5.5 7H11.5C11.5995 7 11.6948 7.03951 11.7652 7.10984C11.8355 7.18016 11.875 7.27554 11.875 7.375V12.25H5.5C5.40054 12.25 5.30516 12.2105 5.23483 12.1402C5.16451 12.0698 5.125 11.9745 5.125 11.875ZM7.75 13.5625C7.75 13.6738 7.71701 13.7825 7.6552 13.875C7.59339 13.9675 7.50554 14.0396 7.40276 14.0822C7.29998 14.1248 7.18688 14.1359 7.07776 14.1142C6.96865 14.0925 6.86842 14.0389 6.78975 13.9602C6.71109 13.8816 6.65751 13.7814 6.63581 13.6722C6.6141 13.5631 6.62524 13.45 6.66782 13.3472C6.71039 13.2445 6.78249 13.1566 6.87499 13.0948C6.96749 13.033 7.07625 13 7.1875 13C7.33668 13 7.47976 13.0593 7.58525 13.1648C7.69074 13.2702 7.75 13.4133 7.75 13.5625ZM12.8125 13.5625C12.8125 13.6738 12.7795 13.7825 12.7177 13.875C12.6559 13.9675 12.568 14.0396 12.4653 14.0822C12.3625 14.1248 12.2494 14.1359 12.1403 14.1142C12.0311 14.0925 11.9309 14.0389 11.8523 13.9602C11.7736 13.8816 11.72 13.7814 11.6983 13.6722C11.6766 13.5631 11.6877 13.45 11.7303 13.3472C11.7729 13.2445 11.845 13.1566 11.9375 13.0948C12.03 13.033 12.1387 13 12.25 13C12.3992 13 12.5423 13.0593 12.6477 13.1648C12.7532 13.2702 12.8125 13.4133 12.8125 13.5625ZM14.875 11.875C14.875 11.9745 14.8355 12.0698 14.7652 12.1402C14.6948 12.2105 14.5995 12.25 14.5 12.25H12.625V8.6875H13.2494C14.1456 8.6875 14.875 9.36063 14.875 10.1875V11.875Z" fill="#4E2775"/>
</svg>
