<svg width="20" height="20" viewBox="0 0 20 20" fill="none" xmlns="http://www.w3.org/2000/svg">
<rect width="20" height="20" rx="8" fill="#DFC2E3"/>
<g clip-path="url(#clip0_6552_117217)">
<path d="M11.7888 5.69098L12.7888 6.21576C13.8647 6.78033 14.4026 7.06261 14.7013 7.56987C15 8.07713 15 8.70833 15 9.97075V10.0293C15 11.2917 15 11.9229 14.7013 12.4302C14.4026 12.9374 13.8647 13.2197 12.7888 13.7843L11.7888 14.309C10.911 14.7697 10.4721 15 10 15C9.52785 15 9.08895 14.7697 8.21114 14.309L7.21114 13.7843C6.13531 13.2197 5.59739 12.9374 5.2987 12.4302C5 11.9229 5 11.2917 5 10.0293V9.97075C5 8.70833 5 8.07713 5.2987 7.56987C5.59739 7.06261 6.13531 6.78033 7.21114 6.21576L8.21114 5.69098C9.08895 5.23033 9.52785 5 10 5C10.4721 5 10.911 5.23033 11.7888 5.69098Z" stroke="#4E2775" stroke-width="0.75" stroke-linecap="round"/>
<path d="M14.5 7.75L10 10M10 10L5.5 7.75M10 10V14.75" stroke="#4E2775" stroke-width="0.75" stroke-linecap="round"/>
</g>
<defs>
<clipPath id="clip0_6552_117217">
<rect width="12" height="12" fill="white" transform="translate(4 4)"/>
</clipPath>
</defs>
</svg>
