<svg width="20" height="20" viewBox="0 0 20 20" fill="none" xmlns="http://www.w3.org/2000/svg">
<rect width="20" height="20" rx="8" fill="#DFC2E3"/>
<path d="M10.1084 8.66113C10.11 8.66171 10.1122 8.66236 10.1143 8.66309C10.1259 8.66726 10.1467 8.67415 10.1709 8.67871L10.1758 8.67969C10.6508 8.75422 11.0346 9.14544 11.0977 9.59082L11.1064 9.68066C11.1313 10.2435 10.7939 10.7081 10.2832 10.8389V10.8398C10.2289 10.8538 10.1742 10.8654 10.1182 10.8779H9.8877C9.88682 10.8776 9.88575 10.8773 9.88477 10.877C9.87318 10.8728 9.85249 10.8659 9.82812 10.8613V10.8604H9.82227C9.31671 10.7827 8.91316 10.3416 8.89062 9.85938V9.8584C8.86397 9.29709 9.20155 8.83155 9.71191 8.7002L9.71289 8.70117C9.77072 8.68672 9.82729 8.67392 9.88477 8.66113H10.1084ZM13.8359 8.66211C13.849 8.66714 13.8689 8.67322 13.8936 8.67676V8.67773C14.3585 8.75353 14.7099 9.08493 14.8115 9.54102V9.54199C14.8186 9.57727 14.8309 9.62028 14.8389 9.65039V9.87402C14.8346 9.88502 14.8282 9.90704 14.8242 9.93359H14.8232C14.7493 10.392 14.4252 10.7388 13.9717 10.8447L13.9697 10.8457C13.9277 10.856 13.882 10.869 13.8457 10.8789H13.6191C13.6177 10.8784 13.616 10.8776 13.6143 10.877C13.6027 10.8728 13.582 10.8659 13.5576 10.8613L13.5518 10.8604L13.459 10.8418C13.0298 10.7373 12.6974 10.3839 12.6299 9.96973L12.6201 9.87988L12.6162 9.77637C12.6204 9.26739 12.9261 8.85401 13.4014 8.71289C13.4713 8.69265 13.5311 8.68229 13.6123 8.66211H13.8359ZM6.37891 8.66113C6.38186 8.66215 6.38525 8.66325 6.3877 8.66406C6.39998 8.66814 6.42052 8.67249 6.44531 8.67578V8.67773C6.95387 8.75713 7.3464 9.17913 7.37793 9.66699V9.66797C7.41333 10.2214 7.09605 10.6792 6.58594 10.8281L6.58496 10.8291C6.52177 10.848 6.45982 10.8608 6.3877 10.8779H6.16113C6.15023 10.8734 6.1344 10.8665 6.11621 10.8623L6.10938 10.8604C5.87213 10.8165 5.68414 10.7277 5.53809 10.5986C5.3919 10.4694 5.27918 10.2931 5.20508 10.0625V10.0605L5.18164 9.97363C5.17589 9.9489 5.16855 9.91868 5.16113 9.88867V9.66406C5.16541 9.65296 5.17092 9.63044 5.1748 9.60352L5.17676 9.60449C5.25289 9.1436 5.57518 8.79919 6.02832 8.69336L6.03027 8.69238C6.07207 8.68207 6.11227 8.67148 6.15137 8.66113H6.37891Z" fill="#4E2775" stroke="#4E2775" stroke-width="0.321885"/>
</svg>
