<svg width="20" height="20" viewBox="0 0 20 20" fill="none" xmlns="http://www.w3.org/2000/svg">
<rect width="20" height="20.0005" rx="8" fill="#DFC2E3"/>
<path d="M10.5 7.07321C11.2106 7.07321 11.7866 6.49717 11.7866 5.7866C11.7866 5.07603 11.2106 4.5 10.5 4.5C9.78941 4.5 9.21338 5.07603 9.21338 5.7866C9.21338 6.49717 9.78941 7.07321 10.5 7.07321Z" fill="#4E2775"/>
<path d="M10.4999 15.4998C10.9262 15.4998 11.2718 15.1542 11.2718 14.7279C11.2718 14.3016 10.9262 13.9561 10.4999 13.9561C10.0736 13.9561 9.72803 14.3016 9.72803 14.7279C9.72803 15.1542 10.0736 15.4998 10.4999 15.4998Z" fill="#4E2775"/>
<path d="M7.33845 8.25355C7.97801 8.25355 8.49647 7.73509 8.49647 7.09553C8.49647 6.45597 7.97801 5.9375 7.33845 5.9375C6.69889 5.9375 6.18042 6.45597 6.18042 7.09553C6.18042 7.73509 6.69889 8.25355 7.33845 8.25355Z" fill="#4E2775"/>
<path d="M13.6612 14.062C14.0165 14.062 14.3045 13.774 14.3045 13.4187C14.3045 13.0634 14.0165 12.7754 13.6612 12.7754C13.306 12.7754 13.0179 13.0634 13.0179 13.4187C13.0179 13.774 13.306 14.062 13.6612 14.062Z" fill="#4E2775"/>
<path d="M6.02903 11.2866C6.59735 11.2866 7.05806 10.8259 7.05806 10.2575C7.05806 9.68923 6.59735 9.22852 6.02903 9.22852C5.46071 9.22852 5 9.68923 5 10.2575C5 10.8259 5.46071 11.2866 6.02903 11.2866Z" fill="#4E2775"/>
<path d="M14.9704 10.7708C15.2544 10.7708 15.4847 10.5405 15.4847 10.2565C15.4847 9.97245 15.2544 9.74219 14.9704 9.74219C14.6863 9.74219 14.4561 9.97245 14.4561 10.2565C14.4561 10.5405 14.6863 10.7708 14.9704 10.7708Z" fill="#4E2775"/>
<path d="M6.70193 12.7831C6.35001 13.135 6.35001 13.7044 6.70193 14.0563C7.05342 14.4082 7.62367 14.4082 7.97517 14.0563C8.32709 13.7044 8.32709 13.135 7.97517 12.7831C7.62367 12.4307 7.05384 12.4274 6.70193 12.7831Z" fill="#4E2775"/>
<path d="M13.6609 7.48142C13.8739 7.48142 14.0466 7.30872 14.0466 7.09569C14.0466 6.88266 13.8739 6.70996 13.6609 6.70996C13.4478 6.70996 13.2751 6.88266 13.2751 7.09569C13.2751 7.30872 13.4478 7.48142 13.6609 7.48142Z" fill="#4E2775"/>
</svg>
