<svg width="20" height="20" viewBox="0 0 20 20" fill="none" xmlns="http://www.w3.org/2000/svg">
<rect width="20" height="20" rx="8" fill="#DFC2E3"/>
<g clip-path="url(#clip0_6552_117223)">
<path fill-rule="evenodd" clip-rule="evenodd" d="M5.53808 6.80866C5.61547 6.62182 5.79779 6.5 6.00002 6.5H11C12.933 6.5 14.5 8.06701 14.5 10C14.5 11.933 12.933 13.5 11 13.5H6.50002C6.22387 13.5 6.00002 13.2761 6.00002 13C6.00002 12.7239 6.22387 12.5 6.50002 12.5H11C12.3808 12.5 13.5 11.3807 13.5 10C13.5 8.61929 12.3808 7.5 11 7.5H7.20712L8.10357 8.39644C8.29883 8.59171 8.29883 8.90829 8.10357 9.10355C7.90831 9.2988 7.59173 9.2988 7.39646 9.10355L5.64646 7.35355C5.50346 7.21055 5.46069 6.9955 5.53808 6.80866Z" fill="#4E2775"/>
</g>
<defs>
<clipPath id="clip0_6552_117223">
<rect width="12" height="12" fill="white" transform="translate(4 4)"/>
</clipPath>
</defs>
</svg>
